<?xml version="1.0" encoding="UTF-8"?>
<svg xmlns="http://www.w3.org/2000/svg" version="1.1" viewBox="0 0 645.9 371.6">
  <defs>
    <style>
      .cls-1, .cls-2 {
        fill: #cd0000;
      }

      .cls-3 {
        stroke: #000;
        stroke-linecap: round;
        stroke-linejoin: bevel;
        stroke-width: .7px;
      }

      .cls-3, .cls-4, .cls-5 {
        fill: none;
      }

      .cls-6, .cls-7 {
        fill: #d200ff;
      }

      .cls-6, .cls-8 {
        fill-rule: evenodd;
      }

      .cls-4 {
        stroke-dasharray: 1 1;
      }

      .cls-4, .cls-5, .cls-9 {
        stroke-miterlimit: 10;
      }

      .cls-4, .cls-9 {
        stroke: #009fa0;
      }

      .cls-5 {
        stroke: #d200ff;
      }

      .cls-10, .cls-2, .cls-11, .cls-12, .cls-13, .cls-14, .cls-7, .cls-15, .cls-16 {
        isolation: isolate;
      }

      .cls-10, .cls-2, .cls-11, .cls-13, .cls-14, .cls-7, .cls-15, .cls-16 {
        font-size: 10.3px;
      }

      .cls-10, .cls-2, .cls-11, .cls-14, .cls-15, .cls-16 {
        font-family: ArialMT, Arial;
      }

      .cls-17, .cls-9 {
        fill: #e9f4f4;
      }

      .cls-11 {
        letter-spacing: 0em;
      }

      .cls-11, .cls-15 {
        fill: brown;
      }

      .cls-13 {
        font-family: CourierNewPS-BoldMT, 'Courier New';
      }

      .cls-13, .cls-14 {
        fill: blue;
      }

      .cls-13, .cls-7 {
        font-weight: 700;
      }

      .cls-7 {
        font-family: Arial-BoldMT, Arial;
      }

      .cls-16 {
        fill: red;
      }

      .cls-9 {
        stroke-dasharray: 1;
      }

      .cls-18 {
        fill: #ff0;
      }
    </style>
  </defs>
  <!-- Generator: Adobe Illustrator 28.6.0, SVG Export Plug-In . SVG Version: 1.2.0 Build 709)  -->
  <g>
    <g id="Layer_2">
      <g>
        <rect class="cls-17" x="5.3" y="112.8" width="169.8" height="123.5" rx="2.8" ry="2.8"/>
        <rect class="cls-4" x="5.3" y="112.8" width="169.8" height="123.5" rx="2.8" ry="2.8"/>
      </g>
      <rect class="cls-9" x="5.3" y="82.5" width="195.5" height="14.1" rx="2.8" ry="2.8"/>
      <rect class="cls-9" x="212.1" y="36.9" width="143.1" height="12.9" rx="2.8" ry="2.8"/>
      <rect class="cls-9" x="372.4" y="6.4" width="177.3" height="60.3" rx="2.8" ry="2.8"/>
      <rect class="cls-9" x="480.6" y="125.7" width="158.5" height="28.5" rx="2.8" ry="2.8"/>
      <rect class="cls-9" x="372.4" y="229.1" width="177.4" height="63.9" rx="2.8" ry="2.8"/>
      <path class="cls-9" d="M185.3,361.4v-56.3c0-1.6,1.3-2.8,2.8-2.8h63c1.6,0,2.8-1.3,2.8-2.8v-23.7c0-1.6,1.3-2.8,2.8-2.8h47c1.6,0,2.8,1.3,2.8,2.8v23.7c0,1.6,1.3,2.8,2.8,2.8h75.6c1.6,0,2.8,1.3,2.8,2.8v56.3c0,1.6-1.3,2.8-2.8,2.8h-196.9c-1.6,0-2.8-1.3-2.8-2.8Z"/>
    </g>
    <g id="Layer_1">
      <g id="Layer_1-2" data-name="Layer_1">
        <rect class="cls-18" x="244.8" y="346.9" width="71.2" height="13.6"/>
        <rect class="cls-3" x="259.8" y="85.5" width="49.5" height="119.2"/>
        <path class="cls-3" d="M301,145.1c0-9.1-7.4-16.5-16.5-16.5s-16.5,7.4-16.5,16.5,7.4,16.5,16.5,16.5,16.5-7.4,16.5-16.5"/>
        <path class="cls-8" d="M281.4,130.7c2.6-1.3,3.4-1.3,7.2-2.1-3.9-.8-4.6-.8-7.2-2.1.5,1.5.5,2.6,0,4.1"/>
        <path class="cls-8" d="M287.6,163.7c-2.6-1.3-3.3-1.3-7.2-2.1,3.9-.8,4.6-.8,7.2-2.1-.5,1.5-.5,2.6,0,4.1"/>
        <line class="cls-3" x1="259.8" y1="146.2" x2="236.5" y2="146.2"/>
        <g class="cls-12">
          <text class="cls-16" transform="translate(240.7 143.6)"><tspan x="0" y="0">trim</tspan></text>
        </g>
        <line class="cls-3" x1="397" y1="196.5" x2="309.3" y2="196.5"/>
        <g class="cls-12">
          <text class="cls-16" transform="translate(311.5 193.9)"><tspan x="0" y="0">out</tspan></text>
        </g>
        <g class="cls-12">
          <text class="cls-10" transform="translate(267.8 177.8)"><tspan x="0" y="0">(~55 to</tspan><tspan x="-4.7" y="12.4">105MHz)</tspan></text>
        </g>
        <rect class="cls-3" x="268" y="233.6" width="24.7" height="24.7"/>
        <g class="cls-12">
          <text class="cls-10" transform="translate(277.9 248.4)"><tspan x="0" y="0">÷</tspan></text>
        </g>
        <g class="cls-12">
          <text class="cls-10" transform="translate(259.4 219.1)"><tspan x="0" y="0">feedback</tspan></text>
        </g>
        <g class="cls-12">
          <text class="cls-10" transform="translate(265.3 229.5)"><tspan x="0" y="0">divider</tspan></text>
        </g>
        <polyline class="cls-3" points="292.8 246 334 246 334 196.5"/>
        <path class="cls-8" d="M300,248c-2.6-1.3-3.4-1.3-7.2-2.1,3.9-.8,4.6-.8,7.2-2.1-.5,1.5-.5,2.6,0,4.1"/>
        <path class="cls-8" d="M335.5,196.5c0-.9-.7-1.5-1.5-1.5s-1.5.7-1.5,1.5.7,1.5,1.5,1.5,1.5-.7,1.5-1.5"/>
        <line class="cls-3" x1="218.2" y1="246" x2="268" y2="246"/>
        <rect class="cls-3" x="188.9" y="229.1" width="29.2" height="53.6"/>
        <line class="cls-5" x1="188.9" y1="270" x2="164.2" y2="270"/>
        <g class="cls-12">
          <text class="cls-7" transform="translate(92.9 273.7)"><tspan x="0" y="0">external clock</tspan></text>
        </g>
        <path class="cls-6" d="M181.7,272c2.6-1.3,3.4-1.3,7.2-2.1-3.9-.8-4.6-.8-7.2-2.1.5,1.5.5,2.6,0,4.1"/>
        <path class="cls-8" d="M225.4,248c-2.6-1.3-3.3-1.3-7.2-2.1,3.9-.8,4.6-.8,7.2-2.1-.5,1.5-.5,2.6,0,4.1"/>
        <path class="cls-8" d="M252.6,148.3c2.6-1.3,3.4-1.3,7.2-2.1-3.9-.8-4.6-.8-7.2-2.1.5,1.5.5,2.6,0,4.1"/>
        <polyline class="cls-3" points="220 166.8 220 125.6 236.5 133.9 236.5 158.6 220 166.8"/>
        <polyline class="cls-3" points="200.8 89.9 228.3 89.9 228.3 129.7"/>
        <g class="cls-12">
          <text class="cls-10" transform="translate(146.8 93)"><tspan x="0" y="0">DCO mode</tspan></text>
        </g>
        <path class="cls-8" d="M230.3,122.5c-1.3,2.6-1.3,3.4-2.1,7.2-.8-3.9-.8-4.6-2.1-7.2,1.5.5,2.6.5,4.1,0"/>
        <line class="cls-3" x1="220" y1="133.9" x2="175" y2="133.9"/>
        <g class="cls-12">
          <text class="cls-10" transform="translate(117.8 137.6)"><tspan x="0" y="0">manual trim</tspan></text>
        </g>
        <path class="cls-8" d="M212.8,135.9c2.6-1.3,3.3-1.3,7.2-2.1-3.9-.8-4.6-.8-7.2-2.1.5,1.5.5,2.6,0,4.1"/>
        <g class="cls-12">
          <text class="cls-10" transform="translate(221.3 137.6)"><tspan x="0" y="0">1</tspan></text>
        </g>
        <g class="cls-12">
          <text class="cls-10" transform="translate(221.3 162.3)"><tspan x="0" y="0">0</tspan></text>
        </g>
        <polyline class="cls-3" points="220 158.6 203.5 158.6 203.5 229.1"/>
        <path class="cls-8" d="M212.8,160.7c2.6-1.3,3.3-1.3,7.2-2.1-3.9-.8-4.6-.8-7.2-2.1.5,1.5.5,2.6,0,4.1"/>
        <g class="cls-12">
          <text class="cls-10" transform="translate(194.7 261.7)"><tspan x="0" y="0">DLL</tspan></text>
        </g>
        <g class="cls-12">
          <text class="cls-10" transform="translate(196.7 240.1)"><tspan x="0" y="0">out</tspan></text>
        </g>
        <line class="cls-3" x1="280.4" y1="272.9" x2="280.4" y2="258.3"/>
        <path class="cls-8" d="M282.5,265.5c-1.3-2.6-1.3-3.4-2.1-7.2-.8,3.9-.8,4.6-2.1,7.2,1.5-.5,2.6-.5,4.1,0"/>
        <g class="cls-12">
          <text class="cls-10" transform="translate(259.5 284.7)"><tspan x="0" y="0">feedback</tspan></text>
        </g>
        <g class="cls-12">
          <text class="cls-10" transform="translate(259.5 295)"><tspan x="0" y="0">divider</tspan></text>
        </g>
        <g class="cls-12">
          <text class="cls-10" transform="translate(259.5 305.3)"><tspan x="0" y="0">value</tspan></text>
        </g>
        <line class="cls-3" x1="397" y1="93.7" x2="309.3" y2="93.7"/>
        <g class="cls-12">
          <text class="cls-10" transform="translate(330 191.9)"><tspan x="0" y="0">(0˚ phase)</tspan></text>
        </g>
        <g class="cls-12">
          <text class="cls-10" transform="translate(330 89.6)"><tspan x="0" y="0">(90˚ phase)</tspan></text>
        </g>
        <g class="cls-12">
          <text class="cls-10" transform="translate(406.8 198.9)"><tspan x="0" y="0">÷</tspan></text>
        </g>
        <rect class="cls-3" x="397" y="184.1" width="24.7" height="24.7"/>
        <g class="cls-12">
          <text class="cls-10" transform="translate(406.8 96.2)"><tspan x="0" y="0">÷</tspan></text>
        </g>
        <rect class="cls-3" x="397" y="81.4" width="24.7" height="24.7"/>
        <g class="cls-12">
          <text class="cls-10" transform="translate(378.6 180)"><tspan x="0" y="0">output divider</tspan></text>
        </g>
        <line class="cls-3" x1="409.3" y1="229.5" x2="409.3" y2="208.8"/>
        <path class="cls-8" d="M411.4,216.1c-1.3-2.6-1.3-3.4-2.1-7.2-.8,3.9-.8,4.6-2.1,7.2,1.5-.5,2.6-.5,4.1,0"/>
        <g class="cls-12">
          <text class="cls-10" transform="translate(394.3 241.1)"><tspan x="0" y="0">out1</tspan></text>
        </g>
        <g class="cls-12">
          <text class="cls-10" transform="translate(394.3 251.4)"><tspan x="0" y="0">divider</tspan></text>
        </g>
        <g class="cls-12">
          <text class="cls-10" transform="translate(394.3 261.7)"><tspan x="0" y="0">value</tspan></text>
        </g>
        <line class="cls-3" x1="409.3" y1="66.8" x2="409.3" y2="81.4"/>
        <path class="cls-8" d="M411.4,74.2c-1.3,2.6-1.3,3.3-2.1,7.2-.8-3.9-.8-4.6-2.1-7.2,1.5.5,2.6.5,4.1,0"/>
        <g class="cls-12">
          <text class="cls-10" transform="translate(394.3 42)"><tspan x="0" y="0">out2</tspan></text>
        </g>
        <g class="cls-12">
          <text class="cls-10" transform="translate(394.3 52.3)"><tspan x="0" y="0">divider</tspan></text>
        </g>
        <g class="cls-12">
          <text class="cls-10" transform="translate(394.3 62.6)"><tspan x="0" y="0">value</tspan></text>
        </g>
        <line class="cls-3" x1="455.4" y1="93.7" x2="421.7" y2="93.7"/>
        <path class="cls-8" d="M389.8,95.8c2.6-1.3,3.4-1.3,7.2-2.1-3.9-.8-4.6-.8-7.2-2.1.5,1.5.5,2.6,0,4.1"/>
        <path class="cls-8" d="M389.8,198.5c2.6-1.3,3.4-1.3,7.2-2.1-3.9-.8-4.6-.8-7.2-2.1.5,1.5.5,2.6,0,4.1"/>
        <line class="cls-3" x1="455.4" y1="196.5" x2="421.7" y2="196.5"/>
        <path class="cls-8" d="M452.3,95.8c2.6-1.3,3.3-1.3,7.2-2.1-3.9-.8-4.6-.8-7.2-2.1.5,1.5.5,2.6,0,4.1"/>
        <path class="cls-8" d="M452.3,198.5c2.6-1.3,3.3-1.3,7.2-2.1-3.9-.8-4.6-.8-7.2-2.1.5,1.5.5,2.6,0,4.1"/>
        <g class="cls-12">
          <text class="cls-10" transform="translate(583.7 187.7)"><tspan x="0" y="0">core</tspan></text>
        </g>
        <g class="cls-12">
          <text class="cls-10" transform="translate(583.7 198)"><tspan x="0" y="0">clock</tspan></text>
        </g>
        <polyline class="cls-3" points="459.6 204.7 459.6 163.5 476.1 171.7 476.1 196.5 459.6 204.7"/>
        <g class="cls-12">
          <text class="cls-10" transform="translate(460.6 175.9)"><tspan x="0" y="0">1</tspan></text>
        </g>
        <g class="cls-12">
          <text class="cls-10" transform="translate(460.6 200.2)"><tspan x="0" y="0">0</tspan></text>
        </g>
        <path class="cls-8" d="M469.9,160.4c-1.3,2.6-1.3,3.3-2.1,7.2-.8-3.9-.8-4.6-2.1-7.2,1.5.5,2.6.5,4.1,0"/>
        <line class="cls-3" x1="467.8" y1="122.6" x2="467.8" y2="167.6"/>
        <g class="cls-12">
          <text class="cls-10" transform="translate(482.9 149.2)"><tspan x="0" y="0">DLL bypass</tspan></text>
        </g>
        <line class="cls-3" x1="517.3" y1="184.1" x2="476.1" y2="184.1"/>
        <path class="cls-6" d="M452.3,120.6c2.6-1.3,3.3-1.3,7.2-2.1-3.9-.8-4.6-.8-7.2-2.1.5,1.5.5,2.6,0,4.1"/>
        <g class="cls-12">
          <text class="cls-7" transform="translate(331.3 148.9)"><tspan x="0" y="0">external clock</tspan></text>
        </g>
        <path class="cls-8" d="M514.2,186.2c2.6-1.3,3.3-1.3,7.2-2.1-3.9-.8-4.6-.8-7.2-2.1.5,1.5.5,2.6,0,4.1"/>
        <polyline class="cls-3" points="459.6 85.5 459.6 126.7 476.1 118.5 476.1 93.7 459.6 85.5"/>
        <g class="cls-12">
          <text class="cls-10" transform="translate(460.6 122.6)"><tspan x="0" y="0">1</tspan></text>
        </g>
        <path class="cls-8" d="M469.9,129.8c-1.3-2.6-1.3-3.4-2.1-7.2-.8,3.9-.8,4.6-2.1,7.2,1.5-.5,2.6-.5,4.1,0"/>
        <g class="cls-12">
          <text class="cls-10" transform="translate(460.6 97.5)"><tspan x="0" y="0">0</tspan></text>
        </g>
        <line class="cls-3" x1="517.3" y1="106.1" x2="476.1" y2="106.1"/>
        <path class="cls-8" d="M514.2,108.2c2.6-1.3,3.3-1.3,7.2-2.1-3.9-.8-4.6-.8-7.2-2.1.5,1.5.5,2.6,0,4.1"/>
        <path class="cls-8" d="M469.4,145.1c0-.9-.7-1.5-1.5-1.5s-1.5.7-1.5,1.5.7,1.5,1.5,1.5,1.5-.7,1.5-1.5"/>
        <line class="cls-3" x1="480.6" y1="145.1" x2="467.8" y2="145.1"/>
        <polyline class="cls-5" points="459.6 171.7 447.2 171.7 447.2 118.5 459.6 118.5"/>
        <line class="cls-5" x1="404.5" y1="145.1" x2="447.2" y2="145.1"/>
        <g class="cls-12">
          <text class="cls-10" transform="translate(378.6 117.8)"><tspan x="0" y="0">output divider</tspan></text>
        </g>
        <path class="cls-6" d="M448.7,145.1c0-.9-.7-1.5-1.5-1.5s-1.5.7-1.5,1.5.7,1.5,1.5,1.5,1.5-.7,1.5-1.5"/>
        <path class="cls-6" d="M452.3,173.8c2.6-1.3,3.3-1.3,7.2-2.1-3.9-.8-4.6-.8-7.2-2.1.5,1.5.5,2.6,0,4.1"/>
        <g class="cls-12">
          <text class="cls-10" transform="translate(268.2 98.3)"><tspan x="0" y="0">“DCO”:</tspan><tspan x="7.7" y="12.4">ring</tspan><tspan x="-4" y="24.7">oscillator</tspan></text>
        </g>
        <g class="cls-12">
          <text class="cls-16" transform="translate(311.5 91.2)"><tspan x="0" y="0">out</tspan></text>
        </g>
        <g class="cls-12">
          <text class="cls-13" transform="translate(375.4 286.8)"><tspan x="0" y="0">reg_hkspi_pll_source</tspan></text>
        </g>
        <g class="cls-12">
          <text class="cls-14" transform="translate(505.4 286.8)"><tspan x="0" y="0">(bits 2-0)</tspan></text>
        </g>
        <g class="cls-12">
          <text class="cls-13" transform="translate(375.4 16.9)"><tspan x="0" y="0">reg_hkspi_pll_source</tspan></text>
        </g>
        <g class="cls-12">
          <text class="cls-14" transform="translate(505.4 16.9)"><tspan x="0" y="0">(bits 5-3)</tspan></text>
        </g>
        <g class="cls-12">
          <text class="cls-10" transform="translate(572.8 192.2)"><tspan x="0" y="0">=</tspan></text>
        </g>
        <g class="cls-12">
          <text class="cls-7" transform="translate(526.3 173.8)"><tspan x="0" y="0">wb_clk_i</tspan></text>
          <text class="cls-10" transform="translate(526.3 187.7)"><tspan x="0" y="0">wishbone</tspan></text>
          <text class="cls-10" transform="translate(526.3 198.5)"><tspan x="0" y="0">clock</tspan></text>
        </g>
        <g class="cls-12">
          <text class="cls-7" transform="translate(525.6 109.1)"><tspan x="0" y="0">user_clock2</tspan></text>
        </g>
        <g class="cls-12">
          <text class="cls-13" transform="translate(481.7 135.4)"><tspan x="0" y="0">reg_hkspi_pll_bypass</tspan></text>
        </g>
        <g class="cls-12">
          <text class="cls-14" transform="translate(610.3 135.4)"><tspan x="0" y="0">(bit 0)</tspan></text>
        </g>
        <g class="cls-12">
          <text class="cls-13" transform="translate(197.7 316.2)"><tspan x="0" y="0">reg_hkspi_pll_divider</tspan></text>
        </g>
        <g class="cls-12">
          <text class="cls-14" transform="translate(333.6 316.2)"><tspan x="0" y="0">(bits 4-0)</tspan></text>
        </g>
        <g class="cls-12">
          <text class="cls-13" transform="translate(9.2 92.6)"><tspan x="0" y="0">reg_hkspi_pll_ena</tspan></text>
        </g>
        <g class="cls-12">
          <text class="cls-14" transform="translate(117.1 92.6)"><tspan x="0" y="0">(bit 1)</tspan></text>
        </g>
        <g class="cls-12">
          <text class="cls-14" transform="translate(126.3 124.2)"><tspan x="0" y="0">(bits 25-0)</tspan></text>
        </g>
        <g class="cls-12">
          <text class="cls-16" transform="translate(248.9 82.9)"><tspan x="0" y="0">enable</tspan></text>
        </g>
        <g>
          <line class="cls-3" x1="284.5" y1="50.3" x2="284.5" y2="85.5"/>
          <path class="cls-8" d="M282.5,78.3c1.3,2.6,1.3,3.4,2.1,7.2.8-3.9.8-4.6,2.1-7.2-1.5.5-2.6.5-4.1,0"/>
        </g>
        <g class="cls-12">
          <text class="cls-13" transform="translate(216.5 46.4)"><tspan x="0" y="0">reg_hkspi_pll_ena</tspan></text>
        </g>
        <g class="cls-12">
          <text class="cls-14" transform="translate(324.8 46.4)"><tspan x="0" y="0">(bit 0)</tspan></text>
        </g>
        <g class="cls-12">
          <text class="cls-13" transform="translate(8.4 124.2)"><tspan x="0" y="0">reg_hkspi_pll_trim</tspan></text>
        </g>
        <g class="cls-12">
          <text class="cls-2" transform="translate(188.6 330.5)"><tspan x="0" y="0">value 1 to 31 =&gt; divide feedback by 1 to 31</tspan><tspan x="31.8" y="12.4">(i.e. multiply clock frequency)</tspan></text>
        </g>
        <g class="cls-12">
          <text class="cls-2" transform="translate(384.5 29.6)"><tspan x="0" y="0">value 0 to 7</tspan></text>
        </g>
        <g class="cls-12">
          <text class="cls-2" transform="translate(384.5 274.8)"><tspan x="0" y="0">value 0 to 7</tspan></text>
        </g>
        <g>
          <path class="cls-1" d="M14.4,154v.9h-4.9c0-.2,0-.4.1-.6.1-.3.3-.7.6-1,.3-.3.7-.7,1.2-1.1.8-.7,1.3-1.2,1.6-1.6.3-.4.4-.7.4-1.1s-.1-.7-.4-.9c-.3-.2-.6-.4-1-.4s-.8.1-1,.4-.4.6-.4,1.1h-.9c0-.8.3-1.3.7-1.7.4-.4,1-.5,1.7-.5s1.3.2,1.7.6.6.9.6,1.5,0,.6-.2.9c-.1.3-.3.6-.6.9s-.7.7-1.4,1.3c-.5.5-.9.8-1,.9-.2.2-.3.3-.4.5h3.6,0Z"/>
          <path class="cls-1" d="M15.4,148.4v-.9h4.8v.7c-.5.5-.9,1.2-1.4,2-.5.8-.8,1.7-1.1,2.6-.2.6-.3,1.3-.3,2h-.9c0-.6.1-1.3.3-2.1.2-.8.5-1.6.9-2.4.4-.8.8-1.4,1.3-1.9,0,0-3.6,0-3.6,0Z"/>
          <path class="cls-1" d="M21,152.6v-.9h2.8v.9h-2.8Z"/>
          <path class="cls-1" d="M24.4,153.2h.9c0,.2.2.5.4.7.2.2.6.3,1,.3s.7,0,.9-.3c.2-.2.3-.4.3-.6s0-.4-.3-.5c-.1,0-.4-.2-.9-.3-.7-.2-1.1-.3-1.4-.4-.3-.1-.5-.3-.6-.5s-.2-.5-.2-.7,0-.5.2-.7c.1-.2.3-.4.4-.5.1-.1.3-.2.6-.3s.5-.1.8-.1c.4,0,.8,0,1.1.2.3.1.6.3.7.5.2.2.3.5.3.8h-.9c0-.2-.2-.4-.3-.5-.2-.2-.5-.2-.8-.2s-.7,0-.9.2c-.2.1-.3.3-.3.5s0,.2.1.3c0,0,.2.2.3.2,0,0,.4.1.8.2.6.2,1.1.3,1.3.4.3.1.5.3.6.5.1.2.2.5.2.8s0,.6-.3.9c-.2.3-.4.5-.8.6-.3.1-.7.2-1.1.2-.7,0-1.2-.1-1.6-.4-.4-.3-.6-.7-.7-1.3Z"/>
          <path class="cls-1" d="M31.9,154v.8c-.1,0-.4,0-.6,0-.3,0-.6,0-.8-.2-.2-.1-.3-.2-.4-.4,0-.2-.1-.5-.1-1.1v-3.1h-.7v-.7h.7v-1.3l.9-.5v1.9h.9v.7h-.9v3.1c0,.3,0,.4,0,.5,0,0,0,.1.2.2,0,0,.2,0,.3,0s.2,0,.4,0Z"/>
          <path class="cls-1" d="M36.4,153.1h.9c-.1.7-.4,1.1-.8,1.4s-.9.5-1.5.5-1.4-.2-1.9-.7-.7-1.2-.7-2,.2-1.6.7-2.1,1.1-.7,1.8-.7,1.3.2,1.8.7c.5.5.7,1.2.7,2.1s0,.1,0,.2h-4c0,.6.2,1,.5,1.3.3.3.7.5,1.1.5s.6,0,.9-.3c.2-.2.4-.5.6-.8h0ZM33.5,151.7h3c0-.4-.2-.8-.3-1-.3-.3-.7-.5-1.1-.5s-.8.1-1,.4c-.3.3-.4.7-.5,1.1Z"/>
          <path class="cls-1" d="M38.5,156.9v-7.4h.8v.7c.2-.3.4-.5.7-.6.2-.1.5-.2.9-.2s.9.1,1.2.4c.3.2.6.6.8,1s.3.9.3,1.4,0,1-.3,1.5c-.2.4-.5.8-.9,1-.4.2-.8.4-1.2.4s-.6,0-.8-.2c-.2-.1-.4-.3-.6-.5v2.6h-.9ZM39.3,152.2c0,.7.1,1.2.4,1.5.3.3.6.5,1,.5s.7-.2,1-.5c.3-.3.4-.9.4-1.6s-.1-1.2-.4-1.5c-.3-.3-.6-.5-1-.5s-.7.2-1,.5-.4.9-.4,1.6Z"/>
          <path class="cls-1" d="M47.8,148.7v1.1h-1v-.8c0-.4,0-.8.2-1,.1-.3.4-.5.7-.6l.2.4c-.2,0-.3.2-.4.3,0,.2-.1.4-.1.7h.5ZM49.4,148.7v1.1h-1v-.8c0-.4,0-.8.2-1,.1-.3.4-.5.7-.6l.2.4c-.2,0-.3.2-.4.3,0,.2-.1.4-.1.7h.5Z"/>
          <path class="cls-1" d="M52.5,154v.8c-.1,0-.4,0-.6,0-.3,0-.6,0-.8-.2-.2-.1-.3-.2-.4-.4,0-.2-.1-.5-.1-1.1v-3.1h-.7v-.7h.7v-1.3l.9-.5v1.9h.9v.7h-.9v3.1c0,.3,0,.4,0,.5,0,0,0,.1.2.2,0,0,.2,0,.3,0s.2,0,.4,0h0Z"/>
          <path class="cls-1" d="M53.4,154.8v-7.4h.9v2.6c.4-.5,1-.7,1.6-.7s.7,0,1,.2c.3.2.5.4.6.6.1.3.2.7.2,1.2v3.4h-.9v-3.4c0-.5,0-.8-.3-1s-.5-.3-.8-.3-.5,0-.8.2c-.2.1-.4.3-.5.6s-.2.6-.2,1v2.9h-.9Z"/>
          <path class="cls-1" d="M62.8,153.1h.9c-.1.7-.4,1.1-.8,1.4s-.9.5-1.5.5-1.4-.2-1.9-.7-.7-1.2-.7-2,.2-1.6.7-2.1,1.1-.7,1.8-.7,1.3.2,1.8.7c.5.5.7,1.2.7,2.1s0,.1,0,.2h-4c0,.6.2,1,.5,1.3.3.3.7.5,1.1.5s.6,0,.9-.3c.2-.2.4-.5.6-.8h0ZM59.8,151.7h3c0-.4-.2-.8-.3-1-.3-.3-.7-.5-1.1-.5s-.8.1-1,.4c-.3.3-.4.7-.5,1.1h0Z"/>
          <path class="cls-1" d="M64.9,154.8v-5.3h.8v.8c.2-.4.4-.6.6-.8.2-.1.4-.2.6-.2.3,0,.6,0,.9.3l-.3.8c-.2-.1-.4-.2-.7-.2s-.4,0-.5.2c-.2.1-.3.3-.3.5-.1.3-.2.7-.2,1.1v2.8h-.9Z"/>
          <path class="cls-1" d="M68.3,154.8v-5.3h.8v.8c.2-.3.4-.5.7-.6.3-.2.6-.2,1-.2s.7,0,1,.2c.3.2.4.4.5.7.4-.6,1-.9,1.7-.9s.9.1,1.2.4.4.7.4,1.4v3.7h-.9v-3.4c0-.4,0-.6,0-.8,0-.2-.2-.3-.3-.4-.2,0-.3-.1-.5-.1-.4,0-.7.1-.9.4-.2.2-.4.7-.4,1.2v3.1h-.9v-3.5c0-.4,0-.7-.2-.9-.1-.2-.4-.3-.7-.3s-.5,0-.7.2c-.2.1-.4.3-.5.6,0,.3-.1.6-.1,1.1v2.8s-.9,0-.9,0Z"/>
          <path class="cls-1" d="M76.6,152.2c0-1,.3-1.7.8-2.2.5-.4,1-.6,1.7-.6s1.3.2,1.8.7.7,1.1.7,2-.1,1.2-.3,1.6c-.2.4-.5.7-.9.9-.4.2-.8.3-1.3.3-.7,0-1.4-.2-1.8-.7-.5-.5-.7-1.2-.7-2.1ZM77.5,152.2c0,.7.1,1.2.4,1.5.3.3.7.5,1.1.5s.8-.2,1.1-.5c.3-.3.4-.9.4-1.6s-.2-1.2-.5-1.5c-.3-.3-.7-.5-1.1-.5s-.8.2-1.1.5-.4.9-.4,1.5Z"/>
          <path class="cls-1" d="M82.6,154.8v-5.3h.8v.8c.2-.3.4-.5.7-.6.3-.2.6-.2,1-.2s.7,0,1,.2c.3.2.4.4.5.7.4-.6,1-.9,1.7-.9s.9.1,1.2.4.4.7.4,1.4v3.7h-.9v-3.4c0-.4,0-.6,0-.8,0-.2-.2-.3-.3-.4-.2,0-.3-.1-.5-.1-.4,0-.7.1-.9.4-.2.2-.4.7-.4,1.2v3.1h-.9v-3.5c0-.4,0-.7-.2-.9-.1-.2-.4-.3-.7-.3s-.5,0-.7.2c-.2.1-.4.3-.5.6,0,.3-.1.6-.1,1.1v2.8s-.9,0-.9,0Z"/>
          <path class="cls-1" d="M94.9,153.1h.9c-.1.7-.4,1.1-.8,1.4s-.9.5-1.5.5-1.4-.2-1.9-.7-.7-1.2-.7-2,.2-1.6.7-2.1,1.1-.7,1.8-.7,1.3.2,1.8.7c.5.5.7,1.2.7,2.1s0,.1,0,.2h-4c0,.6.2,1,.5,1.3.3.3.7.5,1.1.5s.6,0,.9-.3c.2-.2.4-.5.6-.8h0ZM91.9,151.7h3c0-.4-.2-.8-.3-1-.3-.3-.7-.5-1.1-.5s-.8.1-1,.4c-.3.3-.4.7-.5,1.1Z"/>
          <path class="cls-1" d="M98.9,154v.8c-.1,0-.4,0-.6,0-.3,0-.6,0-.8-.2-.2-.1-.3-.2-.4-.4,0-.2-.1-.5-.1-1.1v-3.1h-.7v-.7h.7v-1.3l.9-.5v1.9h.9v.7h-.9v3.1c0,.3,0,.4,0,.5,0,0,0,.1.2.2,0,0,.2,0,.3,0s.2,0,.4,0Z"/>
          <path class="cls-1" d="M103.5,153.1h.9c-.1.7-.4,1.1-.8,1.4s-.9.5-1.5.5-1.4-.2-1.9-.7-.7-1.2-.7-2,.2-1.6.7-2.1,1.1-.7,1.8-.7,1.3.2,1.8.7c.5.5.7,1.2.7,2.1s0,.1,0,.2h-4c0,.6.2,1,.5,1.3.3.3.7.5,1.1.5s.6,0,.9-.3c.2-.2.4-.5.6-.8h0ZM100.5,151.7h3c0-.4-.2-.8-.3-1-.3-.3-.7-.5-1.1-.5s-.8.1-1,.4c-.3.3-.4.7-.5,1.1Z"/>
          <path class="cls-1" d="M105.5,154.8v-5.3h.8v.8c.2-.4.4-.6.6-.8.2-.1.4-.2.6-.2.3,0,.6,0,.9.3l-.3.8c-.2-.1-.4-.2-.7-.2s-.4,0-.5.2c-.2.1-.3.3-.3.5-.1.3-.2.7-.2,1.1v2.8h-.9Z"/>
          <path class="cls-1" d="M115.3,152.9h.9c0,.7-.3,1.2-.7,1.6-.4.3-.9.5-1.5.5s-1.3-.2-1.8-.7c-.4-.5-.7-1.2-.7-2.1s0-1.1.3-1.5.5-.8.9-1c.4-.2.8-.3,1.3-.3s1.1.1,1.4.4.6.7.7,1.3h-.9c0-.2-.2-.5-.4-.7-.2-.2-.5-.3-.8-.3-.5,0-.8.2-1.1.5-.3.3-.4.8-.4,1.6s.1,1.2.4,1.6c.3.3.6.5,1.1.5s.7-.1.9-.3c.2-.2.4-.6.5-1Z"/>
          <path class="cls-1" d="M116.7,152.2c0-1,.3-1.7.8-2.2.5-.4,1-.6,1.7-.6s1.3.2,1.8.7.7,1.1.7,2-.1,1.2-.3,1.6c-.2.4-.5.7-.9.9-.4.2-.8.3-1.3.3-.7,0-1.4-.2-1.8-.7-.5-.5-.7-1.2-.7-2.1ZM117.6,152.2c0,.7.1,1.2.4,1.5.3.3.7.5,1.1.5s.8-.2,1.1-.5c.3-.3.4-.9.4-1.6s-.2-1.2-.5-1.5c-.3-.3-.7-.5-1.1-.5s-.8.2-1.1.5-.4.9-.4,1.5Z"/>
          <path class="cls-1" d="M126.2,154.8v-.7c-.3.5-.8.8-1.5.8s-.8-.1-1.2-.4c-.4-.2-.6-.6-.8-1s-.3-.9-.3-1.5,0-1,.3-1.5.4-.8.8-1c.4-.2.8-.3,1.2-.3s.6,0,.9.2c.3.1.5.3.6.5v-2.6h.9v7.4h-.8ZM123.3,152.2c0,.7.1,1.2.4,1.5.3.3.6.5,1,.5s.7-.2,1-.5c.3-.3.4-.8.4-1.5s-.1-1.3-.4-1.6c-.3-.3-.6-.5-1-.5s-.7.2-1,.5c-.3.3-.4.8-.4,1.6Z"/>
          <path class="cls-1" d="M132.1,153.1h.9c-.1.7-.4,1.1-.8,1.4s-.9.5-1.5.5-1.4-.2-1.9-.7-.7-1.2-.7-2,.2-1.6.7-2.1,1.1-.7,1.8-.7,1.3.2,1.8.7c.5.5.7,1.2.7,2.1s0,.1,0,.2h-4c0,.6.2,1,.5,1.3.3.3.7.5,1.1.5s.6,0,.9-.3c.2-.2.4-.5.6-.8h0ZM129.1,151.7h3c0-.4-.2-.8-.3-1-.3-.3-.7-.5-1.1-.5s-.8.1-1,.4c-.3.3-.4.7-.5,1.1Z"/>
          <path class="cls-1" d="M134,148.4v-1.1h1v.8c0,.5,0,.8-.2,1-.1.3-.4.5-.7.6l-.2-.4c.2,0,.3-.2.4-.3s.1-.4.1-.7h-.5ZM135.5,148.4v-1.1h1v.8c0,.5,0,.8-.2,1-.1.3-.4.5-.7.6l-.2-.4c.2,0,.3-.2.4-.3s.1-.4.1-.7h-.5Z"/>
          <path class="cls-1" d="M137.9,150.5v-1h1v1h-1ZM137.9,154.8v-1h1v1h-1Z"/>
          <path class="cls-1" d="M9.5,162.5c0-.8,0-1.4.2-1.8.2-.5.4-.8.7-1.1.3-.3.7-.4,1.2-.4s.6,0,.9.2c.3.1.5.3.6.6.2.3.3.6.4,1,0,.4.1.9.1,1.5s0,1.4-.2,1.8c-.2.5-.4.8-.7,1.1-.3.3-.7.4-1.2.4s-1.1-.2-1.5-.7c-.4-.5-.6-1.4-.6-2.6ZM10.4,162.5c0,1.1.1,1.8.4,2.1.2.3.6.5.9.5s.7-.2.9-.5c.2-.4.4-1.1.4-2.1s-.1-1.8-.4-2.1c-.2-.3-.6-.5-.9-.5s-.7.2-.9.5c-.3.4-.4,1.1-.4,2.2Z"/>
          <path class="cls-1" d="M14.5,162.5c0-.8,0-1.4.2-1.8.2-.5.4-.8.7-1.1.3-.3.7-.4,1.2-.4s.6,0,.9.2c.3.1.5.3.6.6.2.3.3.6.4,1,0,.4.1.9.1,1.5s0,1.4-.2,1.8c-.2.5-.4.8-.7,1.1-.3.3-.7.4-1.2.4s-1.1-.2-1.5-.7c-.4-.5-.6-1.4-.6-2.6h0ZM15.4,162.5c0,1.1.1,1.8.4,2.1.2.3.6.5.9.5s.7-.2.9-.5c.2-.4.4-1.1.4-2.1s-.1-1.8-.4-2.1c-.2-.3-.6-.5-.9-.5s-.7.2-.9.5c-.3.4-.4,1.1-.4,2.2Z"/>
          <path class="cls-1" d="M19.6,162.5c0-.8,0-1.4.2-1.8.2-.5.4-.8.7-1.1.3-.3.7-.4,1.2-.4s.6,0,.9.2c.3.1.5.3.6.6.2.3.3.6.4,1,0,.4.1.9.1,1.5s0,1.4-.2,1.8c-.2.5-.4.8-.7,1.1-.3.3-.7.4-1.2.4s-1.1-.2-1.5-.7c-.4-.5-.6-1.4-.6-2.6h0ZM20.4,162.5c0,1.1.1,1.8.4,2.1.2.3.6.5.9.5s.7-.2.9-.5c.2-.4.4-1.1.4-2.1s-.1-1.8-.4-2.1c-.2-.3-.6-.5-.9-.5s-.7.2-.9.5c-.3.4-.4,1.1-.4,2.2Z"/>
          <path class="cls-1" d="M24.6,162.5c0-.8,0-1.4.2-1.8.2-.5.4-.8.7-1.1.3-.3.7-.4,1.2-.4s.6,0,.9.2c.3.1.5.3.6.6.2.3.3.6.4,1,0,.4.1.9.1,1.5s0,1.4-.2,1.8c-.2.5-.4.8-.7,1.1-.3.3-.7.4-1.2.4s-1.1-.2-1.5-.7c-.4-.5-.6-1.4-.6-2.6ZM25.4,162.5c0,1.1.1,1.8.4,2.1.2.3.6.5.9.5s.7-.2.9-.5c.2-.4.4-1.1.4-2.1s-.1-1.8-.4-2.1c-.2-.3-.6-.5-.9-.5s-.7.2-.9.5c-.3.4-.4,1.1-.4,2.2Z"/>
          <path class="cls-1" d="M29.6,162.5c0-.8,0-1.4.2-1.8.2-.5.4-.8.7-1.1.3-.3.7-.4,1.2-.4s.6,0,.9.2c.3.1.5.3.6.6.2.3.3.6.4,1,0,.4.1.9.1,1.5s0,1.4-.2,1.8c-.2.5-.4.8-.7,1.1-.3.3-.7.4-1.2.4s-1.1-.2-1.5-.7c-.4-.5-.6-1.4-.6-2.6ZM30.4,162.5c0,1.1.1,1.8.4,2.1.2.3.6.5.9.5s.7-.2.9-.5c.2-.4.4-1.1.4-2.1s-.1-1.8-.4-2.1c-.2-.3-.6-.5-.9-.5s-.7.2-.9.5c-.3.4-.4,1.1-.4,2.2Z"/>
          <path class="cls-1" d="M34.6,162.5c0-.8,0-1.4.2-1.8.2-.5.4-.8.7-1.1.3-.3.7-.4,1.2-.4s.6,0,.9.2c.3.1.5.3.6.6.2.3.3.6.4,1,0,.4.1.9.1,1.5s0,1.4-.2,1.8c-.2.5-.4.8-.7,1.1-.3.3-.7.4-1.2.4s-1.1-.2-1.5-.7c-.4-.5-.6-1.4-.6-2.6ZM35.4,162.5c0,1.1.1,1.8.4,2.1.2.3.6.5.9.5s.7-.2.9-.5c.2-.4.4-1.1.4-2.1s-.1-1.8-.4-2.1c-.2-.3-.6-.5-.9-.5s-.7.2-.9.5c-.3.4-.4,1.1-.4,2.2Z"/>
          <path class="cls-1" d="M39.6,162.5c0-.8,0-1.4.2-1.8.2-.5.4-.8.7-1.1.3-.3.7-.4,1.2-.4s.6,0,.9.2c.3.1.5.3.6.6.2.3.3.6.4,1,0,.4.1.9.1,1.5s0,1.4-.2,1.8c-.2.5-.4.8-.7,1.1-.3.3-.7.4-1.2.4s-1.1-.2-1.5-.7c-.4-.5-.6-1.4-.6-2.6ZM40.4,162.5c0,1.1.1,1.8.4,2.1.2.3.6.5.9.5s.7-.2.9-.5c.2-.4.4-1.1.4-2.1s-.1-1.8-.4-2.1c-.2-.3-.6-.5-.9-.5s-.7.2-.9.5c-.3.4-.4,1.1-.4,2.2Z"/>
          <path class="cls-1" d="M44.6,162.5c0-.8,0-1.4.2-1.8.2-.5.4-.8.7-1.1.3-.3.7-.4,1.2-.4s.6,0,.9.2c.3.1.5.3.6.6.2.3.3.6.4,1,0,.4.1.9.1,1.5s0,1.4-.2,1.8c-.2.5-.4.8-.7,1.1-.3.3-.7.4-1.2.4s-1.1-.2-1.5-.7c-.4-.5-.6-1.4-.6-2.6ZM45.4,162.5c0,1.1.1,1.8.4,2.1.2.3.6.5.9.5s.7-.2.9-.5c.2-.4.4-1.1.4-2.1s-.1-1.8-.4-2.1c-.2-.3-.6-.5-.9-.5s-.7.2-.9.5c-.3.4-.4,1.1-.4,2.2Z"/>
          <path class="cls-1" d="M49.6,162.5c0-.8,0-1.4.2-1.8.2-.5.4-.8.7-1.1.3-.3.7-.4,1.2-.4s.6,0,.9.2c.3.1.5.3.6.6.2.3.3.6.4,1,0,.4.1.9.1,1.5s0,1.4-.2,1.8c-.2.5-.4.8-.7,1.1-.3.3-.7.4-1.2.4s-1.1-.2-1.5-.7c-.4-.5-.6-1.4-.6-2.6ZM50.4,162.5c0,1.1.1,1.8.4,2.1.2.3.6.5.9.5s.7-.2.9-.5c.2-.4.4-1.1.4-2.1s-.1-1.8-.4-2.1c-.2-.3-.6-.5-.9-.5s-.7.2-.9.5c-.3.4-.4,1.1-.4,2.2Z"/>
          <path class="cls-1" d="M54.6,162.5c0-.8,0-1.4.2-1.8.2-.5.4-.8.7-1.1.3-.3.7-.4,1.2-.4s.6,0,.9.2c.3.1.5.3.6.6.2.3.3.6.4,1,0,.4.1.9.1,1.5s0,1.4-.2,1.8c-.2.5-.4.8-.7,1.1-.3.3-.7.4-1.2.4s-1.1-.2-1.5-.7c-.4-.5-.6-1.4-.6-2.6ZM55.4,162.5c0,1.1.1,1.8.4,2.1.2.3.6.5.9.5s.7-.2.9-.5c.2-.4.4-1.1.4-2.1s-.1-1.8-.4-2.1c-.2-.3-.6-.5-.9-.5s-.7.2-.9.5c-.3.4-.4,1.1-.4,2.2Z"/>
          <path class="cls-1" d="M59.6,162.5c0-.8,0-1.4.2-1.8.2-.5.4-.8.7-1.1.3-.3.7-.4,1.2-.4s.6,0,.9.2c.3.1.5.3.6.6.2.3.3.6.4,1,0,.4.1.9.1,1.5s0,1.4-.2,1.8c-.2.5-.4.8-.7,1.1-.3.3-.7.4-1.2.4s-1.1-.2-1.5-.7c-.4-.5-.6-1.4-.6-2.6ZM60.4,162.5c0,1.1.1,1.8.4,2.1.2.3.6.5.9.5s.7-.2.9-.5c.2-.4.4-1.1.4-2.1s-.1-1.8-.4-2.1c-.2-.3-.6-.5-.9-.5s-.7.2-.9.5c-.3.4-.4,1.1-.4,2.2Z"/>
          <path class="cls-1" d="M64.6,162.5c0-.8,0-1.4.2-1.8.2-.5.4-.8.7-1.1.3-.3.7-.4,1.2-.4s.6,0,.9.2c.3.1.5.3.6.6.2.3.3.6.4,1,0,.4.1.9.1,1.5s0,1.4-.2,1.8c-.2.5-.4.8-.7,1.1-.3.3-.7.4-1.2.4s-1.1-.2-1.5-.7c-.4-.5-.6-1.4-.6-2.6ZM65.4,162.5c0,1.1.1,1.8.4,2.1.2.3.6.5.9.5s.7-.2.9-.5c.2-.4.4-1.1.4-2.1s-.1-1.8-.4-2.1c-.2-.3-.6-.5-.9-.5s-.7.2-.9.5c-.3.4-.4,1.1-.4,2.2Z"/>
          <path class="cls-1" d="M69.6,162.5c0-.8,0-1.4.2-1.8.2-.5.4-.8.7-1.1.3-.3.7-.4,1.2-.4s.6,0,.9.2c.3.1.5.3.6.6.2.3.3.6.4,1,0,.4.1.9.1,1.5s0,1.4-.2,1.8c-.2.5-.4.8-.7,1.1-.3.3-.7.4-1.2.4s-1.1-.2-1.5-.7c-.4-.5-.6-1.4-.6-2.6ZM70.4,162.5c0,1.1.1,1.8.4,2.1.2.3.6.5.9.5s.7-.2.9-.5c.2-.4.4-1.1.4-2.1s-.1-1.8-.4-2.1c-.2-.3-.6-.5-.9-.5s-.7.2-.9.5c-.3.4-.4,1.1-.4,2.2Z"/>
          <path class="cls-1" d="M74.6,162.5c0-.8,0-1.4.2-1.8.2-.5.4-.8.7-1.1.3-.3.7-.4,1.2-.4s.6,0,.9.2c.3.1.5.3.6.6.2.3.3.6.4,1,0,.4.1.9.1,1.5s0,1.4-.2,1.8c-.2.5-.4.8-.7,1.1-.3.3-.7.4-1.2.4s-1.1-.2-1.5-.7c-.4-.5-.6-1.4-.6-2.6ZM75.4,162.5c0,1.1.1,1.8.4,2.1.2.3.6.5.9.5s.7-.2.9-.5c.2-.4.4-1.1.4-2.1s-.1-1.8-.4-2.1c-.2-.3-.6-.5-.9-.5s-.7.2-.9.5c-.3.4-.4,1.1-.4,2.2Z"/>
          <path class="cls-1" d="M79.6,162.5c0-.8,0-1.4.2-1.8.2-.5.4-.8.7-1.1.3-.3.7-.4,1.2-.4s.6,0,.9.2c.3.1.5.3.6.6.2.3.3.6.4,1,0,.4.1.9.1,1.5s0,1.4-.2,1.8c-.2.5-.4.8-.7,1.1-.3.3-.7.4-1.2.4s-1.1-.2-1.5-.7c-.4-.5-.6-1.4-.6-2.6ZM80.4,162.5c0,1.1.1,1.8.4,2.1.2.3.6.5.9.5s.7-.2.9-.5c.2-.4.4-1.1.4-2.1s-.1-1.8-.4-2.1c-.2-.3-.6-.5-.9-.5s-.7.2-.9.5c-.3.4-.4,1.1-.4,2.2Z"/>
          <path class="cls-1" d="M84.6,162.5c0-.8,0-1.4.2-1.8.2-.5.4-.8.7-1.1.3-.3.7-.4,1.2-.4s.6,0,.9.2c.3.1.5.3.6.6.2.3.3.6.4,1,0,.4.1.9.1,1.5s0,1.4-.2,1.8c-.2.5-.4.8-.7,1.1-.3.3-.7.4-1.2.4s-1.1-.2-1.5-.7c-.4-.5-.6-1.4-.6-2.6ZM85.4,162.5c0,1.1.1,1.8.4,2.1.2.3.6.5.9.5s.7-.2.9-.5c.2-.4.4-1.1.4-2.1s-.1-1.8-.4-2.1c-.2-.3-.6-.5-.9-.5s-.7.2-.9.5c-.3.4-.4,1.1-.4,2.2Z"/>
          <path class="cls-1" d="M89.6,162.5c0-.8,0-1.4.2-1.8.2-.5.4-.8.7-1.1.3-.3.7-.4,1.2-.4s.6,0,.9.2c.3.1.5.3.6.6.2.3.3.6.4,1,0,.4.1.9.1,1.5s0,1.4-.2,1.8c-.2.5-.4.8-.7,1.1-.3.3-.7.4-1.2.4s-1.1-.2-1.5-.7c-.4-.5-.6-1.4-.6-2.6ZM90.4,162.5c0,1.1.1,1.8.4,2.1.2.3.6.5.9.5s.7-.2.9-.5c.2-.4.4-1.1.4-2.1s-.1-1.8-.4-2.1c-.2-.3-.6-.5-.9-.5s-.7.2-.9.5c-.3.4-.4,1.1-.4,2.2Z"/>
          <path class="cls-1" d="M94.6,162.5c0-.8,0-1.4.2-1.8.2-.5.4-.8.7-1.1.3-.3.7-.4,1.2-.4s.6,0,.9.2c.3.1.5.3.6.6.2.3.3.6.4,1,0,.4.1.9.1,1.5s0,1.4-.2,1.8c-.2.5-.4.8-.7,1.1-.3.3-.7.4-1.2.4s-1.1-.2-1.5-.7c-.4-.5-.6-1.4-.6-2.6ZM95.4,162.5c0,1.1.1,1.8.4,2.1.2.3.6.5.9.5s.7-.2.9-.5c.2-.4.4-1.1.4-2.1s-.1-1.8-.4-2.1c-.2-.3-.6-.5-.9-.5s-.7.2-.9.5c-.3.4-.4,1.1-.4,2.2Z"/>
          <path class="cls-1" d="M99.6,162.5c0-.8,0-1.4.2-1.8.2-.5.4-.8.7-1.1.3-.3.7-.4,1.2-.4s.6,0,.9.2c.3.1.5.3.6.6.2.3.3.6.4,1,0,.4.1.9.1,1.5s0,1.4-.2,1.8c-.2.5-.4.8-.7,1.1-.3.3-.7.4-1.2.4s-1.1-.2-1.5-.7c-.4-.5-.6-1.4-.6-2.6ZM100.5,162.5c0,1.1.1,1.8.4,2.1.2.3.6.5.9.5s.7-.2.9-.5c.2-.4.4-1.1.4-2.1s-.1-1.8-.4-2.1c-.2-.3-.6-.5-.9-.5s-.7.2-.9.5c-.3.4-.4,1.1-.4,2.2Z"/>
          <path class="cls-1" d="M104.6,162.5c0-.8,0-1.4.2-1.8.2-.5.4-.8.7-1.1.3-.3.7-.4,1.2-.4s.6,0,.9.2c.3.1.5.3.6.6.2.3.3.6.4,1,0,.4.1.9.1,1.5s0,1.4-.2,1.8c-.2.5-.4.8-.7,1.1-.3.3-.7.4-1.2.4s-1.1-.2-1.5-.7c-.4-.5-.6-1.4-.6-2.6ZM105.5,162.5c0,1.1.1,1.8.4,2.1.2.3.6.5.9.5s.7-.2.9-.5c.2-.4.4-1.1.4-2.1s-.1-1.8-.4-2.1c-.2-.3-.6-.5-.9-.5s-.7.2-.9.5c-.3.4-.4,1.1-.4,2.2Z"/>
          <path class="cls-1" d="M109.7,162.5c0-.8,0-1.4.2-1.8.2-.5.4-.8.7-1.1.3-.3.7-.4,1.2-.4s.6,0,.9.2c.3.1.5.3.6.6.2.3.3.6.4,1,0,.4.1.9.1,1.5s0,1.4-.2,1.8c-.2.5-.4.8-.7,1.1-.3.3-.7.4-1.2.4s-1.1-.2-1.5-.7c-.4-.5-.6-1.4-.6-2.6ZM110.5,162.5c0,1.1.1,1.8.4,2.1.2.3.6.5.9.5s.7-.2.9-.5c.2-.4.4-1.1.4-2.1s-.1-1.8-.4-2.1c-.2-.3-.6-.5-.9-.5s-.7.2-.9.5c-.3.4-.4,1.1-.4,2.2Z"/>
          <path class="cls-1" d="M114.7,162.5c0-.8,0-1.4.2-1.8.2-.5.4-.8.7-1.1.3-.3.7-.4,1.2-.4s.6,0,.9.2c.3.1.5.3.6.6.2.3.3.6.4,1,0,.4.1.9.1,1.5s0,1.4-.2,1.8c-.2.5-.4.8-.7,1.1-.3.3-.7.4-1.2.4s-1.1-.2-1.5-.7c-.4-.5-.6-1.4-.6-2.6ZM115.5,162.5c0,1.1.1,1.8.4,2.1.2.3.6.5.9.5s.7-.2.9-.5c.2-.4.4-1.1.4-2.1s-.1-1.8-.4-2.1c-.2-.3-.6-.5-.9-.5s-.7.2-.9.5c-.3.4-.4,1.1-.4,2.2Z"/>
          <path class="cls-1" d="M119.7,162.5c0-.8,0-1.4.2-1.8.2-.5.4-.8.7-1.1.3-.3.7-.4,1.2-.4s.6,0,.9.2c.3.1.5.3.6.6.2.3.3.6.4,1,0,.4.1.9.1,1.5s0,1.4-.2,1.8c-.2.5-.4.8-.7,1.1-.3.3-.7.4-1.2.4s-1.1-.2-1.5-.7c-.4-.5-.6-1.4-.6-2.6ZM120.5,162.5c0,1.1.1,1.8.4,2.1.2.3.6.5.9.5s.7-.2.9-.5c.2-.4.4-1.1.4-2.1s-.1-1.8-.4-2.1c-.2-.3-.6-.5-.9-.5s-.7.2-.9.5c-.3.4-.4,1.1-.4,2.2Z"/>
          <path class="cls-1" d="M124.7,162.5c0-.8,0-1.4.2-1.8.2-.5.4-.8.7-1.1.3-.3.7-.4,1.2-.4s.6,0,.9.2c.3.1.5.3.6.6.2.3.3.6.4,1,0,.4.1.9.1,1.5s0,1.4-.2,1.8c-.2.5-.4.8-.7,1.1-.3.3-.7.4-1.2.4s-1.1-.2-1.5-.7c-.4-.5-.6-1.4-.6-2.6ZM125.5,162.5c0,1.1.1,1.8.4,2.1.2.3.6.5.9.5s.7-.2.9-.5c.2-.4.4-1.1.4-2.1s-.1-1.8-.4-2.1c-.2-.3-.6-.5-.9-.5s-.7.2-.9.5c-.3.4-.4,1.1-.4,2.2Z"/>
          <path class="cls-1" d="M129.7,162.5c0-.8,0-1.4.2-1.8.2-.5.4-.8.7-1.1.3-.3.7-.4,1.2-.4s.6,0,.9.2c.3.1.5.3.6.6.2.3.3.6.4,1,0,.4.1.9.1,1.5s0,1.4-.2,1.8c-.2.5-.4.8-.7,1.1-.3.3-.7.4-1.2.4s-1.1-.2-1.5-.7c-.4-.5-.6-1.4-.6-2.6ZM130.5,162.5c0,1.1.1,1.8.4,2.1.2.3.6.5.9.5s.7-.2.9-.5c.2-.4.4-1.1.4-2.1s-.1-1.8-.4-2.1c-.2-.3-.6-.5-.9-.5s-.7.2-.9.5c-.3.4-.4,1.1-.4,2.2Z"/>
          <path class="cls-1" d="M134.7,162.5c0-.8,0-1.4.2-1.8.2-.5.4-.8.7-1.1.3-.3.7-.4,1.2-.4s.6,0,.9.2c.3.1.5.3.6.6.2.3.3.6.4,1,0,.4.1.9.1,1.5s0,1.4-.2,1.8c-.2.5-.4.8-.7,1.1-.3.3-.7.4-1.2.4s-1.1-.2-1.5-.7c-.4-.5-.6-1.4-.6-2.6ZM135.5,162.5c0,1.1.1,1.8.4,2.1.2.3.6.5.9.5s.7-.2.9-.5c.2-.4.4-1.1.4-2.1s-.1-1.8-.4-2.1c-.2-.3-.6-.5-.9-.5s-.7.2-.9.5c-.3.4-.4,1.1-.4,2.2Z"/>
          <path class="cls-1" d="M146.6,161.9h-4.3v-.7h4.3v.7ZM146.6,163.8h-4.3v-.7h4.3v.7Z"/>
          <path class="cls-1" d="M150.4,165.6v-4.1h-.7v-.6h.7v-.5c0-.3,0-.5,0-.7,0-.2.2-.4.4-.5.2-.1.5-.2.8-.2s.5,0,.7,0v.7c-.3,0-.4,0-.6,0-.2,0-.4,0-.5.2-.1.1-.2.3-.2.6v.4h.9v.6h-.9v4.1h-.8Z"/>
          <path class="cls-1" d="M155.7,165.1c-.3.2-.6.4-.8.5-.3.1-.6.2-.9.2-.5,0-.9-.1-1.2-.4-.3-.2-.4-.6-.4-1s0-.4.2-.6c.1-.2.2-.3.4-.5.2-.1.4-.2.6-.3.2,0,.4,0,.7-.1.6,0,1.1-.2,1.4-.3,0-.1,0-.2,0-.2,0-.3,0-.5-.2-.7-.2-.2-.5-.3-.9-.3s-.6,0-.8.2c-.2.1-.3.4-.4.7h-.8c0-.4.2-.7.3-.9.2-.2.4-.4.7-.5.3-.1.7-.2,1.1-.2s.7,0,1,.1.4.2.5.4c.1.1.2.3.2.5,0,.1,0,.4,0,.7v1.1c0,.7,0,1.2,0,1.4,0,.2.1.4.2.6h-.8c0-.2-.1-.4-.2-.6ZM155.6,163.3c-.3.1-.7.2-1.3.3-.3,0-.6,0-.7.2s-.2.1-.3.3c0,.1-.1.2-.1.4,0,.2,0,.4.2.5.2.1.4.2.7.2s.6,0,.8-.2c.2-.1.4-.3.5-.5,0-.2.1-.4.1-.8v-.3Z"/>
          <path class="cls-1" d="M157.4,164.2h.8c0,.2.2.4.4.6.2.2.5.2.8.2s.6,0,.8-.2c.2-.1.3-.3.3-.5s0-.3-.2-.4c-.1,0-.4-.2-.8-.3-.6-.1-1-.3-1.2-.4-.2-.1-.4-.3-.5-.4-.1-.2-.2-.4-.2-.6s0-.4.1-.6c0-.2.2-.3.4-.4.1,0,.3-.2.5-.2.2,0,.4,0,.7,0,.4,0,.7,0,1,.2.3.1.5.2.6.4.1.2.2.4.3.7h-.8c0-.1-.1-.3-.3-.5-.2-.1-.4-.2-.7-.2s-.6,0-.8.2-.2.3-.2.4,0,.2,0,.3c0,0,.2.2.3.2,0,0,.3,0,.7.2.6.1,1,.3,1.2.4.2,0,.4.2.5.4s.2.4.2.7,0,.5-.2.7c-.2.2-.4.4-.7.5-.3.1-.6.2-1,.2-.6,0-1.1-.1-1.4-.4-.3-.3-.5-.6-.6-1.1Z"/>
          <path class="cls-1" d="M163.9,164.9v.7c-.1,0-.3,0-.5,0-.3,0-.5,0-.7-.1-.2,0-.3-.2-.3-.4,0-.1,0-.5,0-.9v-2.7h-.6v-.6h.6v-1.2l.8-.5v1.6h.8v.6h-.8v2.7c0,.2,0,.4,0,.4,0,0,0,.1.1.2,0,0,.2,0,.3,0s.2,0,.3,0Z"/>
          <path class="cls-1" d="M9.5,173.3c0-.8,0-1.4.2-1.8.2-.5.4-.8.7-1.1.3-.3.7-.4,1.2-.4s.6,0,.9.2c.3.1.5.3.6.6.2.3.3.6.4,1,0,.4.1.9.1,1.5s0,1.4-.2,1.8c-.2.5-.4.8-.7,1.1-.3.3-.7.4-1.2.4s-1.1-.2-1.5-.7c-.4-.5-.6-1.4-.6-2.6ZM10.4,173.3c0,1.1.1,1.8.4,2.1.2.3.6.5.9.5s.7-.2.9-.5c.2-.4.4-1.1.4-2.1s-.1-1.8-.4-2.1c-.2-.3-.6-.5-.9-.5s-.7.2-.9.5c-.3.4-.4,1.1-.4,2.2Z"/>
          <path class="cls-1" d="M14.5,173.3c0-.8,0-1.4.2-1.8.2-.5.4-.8.7-1.1.3-.3.7-.4,1.2-.4s.6,0,.9.2c.3.1.5.3.6.6.2.3.3.6.4,1,0,.4.1.9.1,1.5s0,1.4-.2,1.8c-.2.5-.4.8-.7,1.1-.3.3-.7.4-1.2.4s-1.1-.2-1.5-.7c-.4-.5-.6-1.4-.6-2.6h0ZM15.4,173.3c0,1.1.1,1.8.4,2.1.2.3.6.5.9.5s.7-.2.9-.5c.2-.4.4-1.1.4-2.1s-.1-1.8-.4-2.1c-.2-.3-.6-.5-.9-.5s-.7.2-.9.5c-.3.4-.4,1.1-.4,2.2Z"/>
          <path class="cls-1" d="M19.6,173.3c0-.8,0-1.4.2-1.8.2-.5.4-.8.7-1.1.3-.3.7-.4,1.2-.4s.6,0,.9.2c.3.1.5.3.6.6.2.3.3.6.4,1,0,.4.1.9.1,1.5s0,1.4-.2,1.8c-.2.5-.4.8-.7,1.1-.3.3-.7.4-1.2.4s-1.1-.2-1.5-.7c-.4-.5-.6-1.4-.6-2.6h0ZM20.4,173.3c0,1.1.1,1.8.4,2.1.2.3.6.5.9.5s.7-.2.9-.5c.2-.4.4-1.1.4-2.1s-.1-1.8-.4-2.1c-.2-.3-.6-.5-.9-.5s-.7.2-.9.5c-.3.4-.4,1.1-.4,2.2Z"/>
          <path class="cls-1" d="M24.6,173.3c0-.8,0-1.4.2-1.8.2-.5.4-.8.7-1.1.3-.3.7-.4,1.2-.4s.6,0,.9.2c.3.1.5.3.6.6.2.3.3.6.4,1,0,.4.1.9.1,1.5s0,1.4-.2,1.8c-.2.5-.4.8-.7,1.1-.3.3-.7.4-1.2.4s-1.1-.2-1.5-.7c-.4-.5-.6-1.4-.6-2.6ZM25.4,173.3c0,1.1.1,1.8.4,2.1.2.3.6.5.9.5s.7-.2.9-.5c.2-.4.4-1.1.4-2.1s-.1-1.8-.4-2.1c-.2-.3-.6-.5-.9-.5s-.7.2-.9.5c-.3.4-.4,1.1-.4,2.2Z"/>
          <path class="cls-1" d="M29.6,173.3c0-.8,0-1.4.2-1.8.2-.5.4-.8.7-1.1.3-.3.7-.4,1.2-.4s.6,0,.9.2c.3.1.5.3.6.6.2.3.3.6.4,1,0,.4.1.9.1,1.5s0,1.4-.2,1.8c-.2.5-.4.8-.7,1.1-.3.3-.7.4-1.2.4s-1.1-.2-1.5-.7c-.4-.5-.6-1.4-.6-2.6ZM30.4,173.3c0,1.1.1,1.8.4,2.1.2.3.6.5.9.5s.7-.2.9-.5c.2-.4.4-1.1.4-2.1s-.1-1.8-.4-2.1c-.2-.3-.6-.5-.9-.5s-.7.2-.9.5c-.3.4-.4,1.1-.4,2.2Z"/>
          <path class="cls-1" d="M34.6,173.3c0-.8,0-1.4.2-1.8.2-.5.4-.8.7-1.1.3-.3.7-.4,1.2-.4s.6,0,.9.2c.3.1.5.3.6.6.2.3.3.6.4,1,0,.4.1.9.1,1.5s0,1.4-.2,1.8c-.2.5-.4.8-.7,1.1-.3.3-.7.4-1.2.4s-1.1-.2-1.5-.7c-.4-.5-.6-1.4-.6-2.6ZM35.4,173.3c0,1.1.1,1.8.4,2.1.2.3.6.5.9.5s.7-.2.9-.5c.2-.4.4-1.1.4-2.1s-.1-1.8-.4-2.1c-.2-.3-.6-.5-.9-.5s-.7.2-.9.5c-.3.4-.4,1.1-.4,2.2Z"/>
          <path class="cls-1" d="M39.6,173.3c0-.8,0-1.4.2-1.8.2-.5.4-.8.7-1.1.3-.3.7-.4,1.2-.4s.6,0,.9.2c.3.1.5.3.6.6.2.3.3.6.4,1,0,.4.1.9.1,1.5s0,1.4-.2,1.8c-.2.5-.4.8-.7,1.1-.3.3-.7.4-1.2.4s-1.1-.2-1.5-.7c-.4-.5-.6-1.4-.6-2.6ZM40.4,173.3c0,1.1.1,1.8.4,2.1.2.3.6.5.9.5s.7-.2.9-.5c.2-.4.4-1.1.4-2.1s-.1-1.8-.4-2.1c-.2-.3-.6-.5-.9-.5s-.7.2-.9.5c-.3.4-.4,1.1-.4,2.2Z"/>
          <path class="cls-1" d="M44.6,173.3c0-.8,0-1.4.2-1.8.2-.5.4-.8.7-1.1.3-.3.7-.4,1.2-.4s.6,0,.9.2c.3.1.5.3.6.6.2.3.3.6.4,1,0,.4.1.9.1,1.5s0,1.4-.2,1.8c-.2.5-.4.8-.7,1.1-.3.3-.7.4-1.2.4s-1.1-.2-1.5-.7c-.4-.5-.6-1.4-.6-2.6ZM45.4,173.3c0,1.1.1,1.8.4,2.1.2.3.6.5.9.5s.7-.2.9-.5c.2-.4.4-1.1.4-2.1s-.1-1.8-.4-2.1c-.2-.3-.6-.5-.9-.5s-.7.2-.9.5c-.3.4-.4,1.1-.4,2.2Z"/>
          <path class="cls-1" d="M49.6,173.3c0-.8,0-1.4.2-1.8.2-.5.4-.8.7-1.1.3-.3.7-.4,1.2-.4s.6,0,.9.2c.3.1.5.3.6.6.2.3.3.6.4,1,0,.4.1.9.1,1.5s0,1.4-.2,1.8c-.2.5-.4.8-.7,1.1-.3.3-.7.4-1.2.4s-1.1-.2-1.5-.7c-.4-.5-.6-1.4-.6-2.6ZM50.4,173.3c0,1.1.1,1.8.4,2.1.2.3.6.5.9.5s.7-.2.9-.5c.2-.4.4-1.1.4-2.1s-.1-1.8-.4-2.1c-.2-.3-.6-.5-.9-.5s-.7.2-.9.5c-.3.4-.4,1.1-.4,2.2Z"/>
          <path class="cls-1" d="M54.6,173.3c0-.8,0-1.4.2-1.8.2-.5.4-.8.7-1.1.3-.3.7-.4,1.2-.4s.6,0,.9.2c.3.1.5.3.6.6.2.3.3.6.4,1,0,.4.1.9.1,1.5s0,1.4-.2,1.8c-.2.5-.4.8-.7,1.1-.3.3-.7.4-1.2.4s-1.1-.2-1.5-.7c-.4-.5-.6-1.4-.6-2.6ZM55.4,173.3c0,1.1.1,1.8.4,2.1.2.3.6.5.9.5s.7-.2.9-.5c.2-.4.4-1.1.4-2.1s-.1-1.8-.4-2.1c-.2-.3-.6-.5-.9-.5s-.7.2-.9.5c-.3.4-.4,1.1-.4,2.2Z"/>
          <path class="cls-1" d="M59.6,173.3c0-.8,0-1.4.2-1.8.2-.5.4-.8.7-1.1.3-.3.7-.4,1.2-.4s.6,0,.9.2c.3.1.5.3.6.6.2.3.3.6.4,1,0,.4.1.9.1,1.5s0,1.4-.2,1.8c-.2.5-.4.8-.7,1.1-.3.3-.7.4-1.2.4s-1.1-.2-1.5-.7c-.4-.5-.6-1.4-.6-2.6ZM60.4,173.3c0,1.1.1,1.8.4,2.1.2.3.6.5.9.5s.7-.2.9-.5c.2-.4.4-1.1.4-2.1s-.1-1.8-.4-2.1c-.2-.3-.6-.5-.9-.5s-.7.2-.9.5c-.3.4-.4,1.1-.4,2.2Z"/>
          <path class="cls-1" d="M64.6,173.3c0-.8,0-1.4.2-1.8.2-.5.4-.8.7-1.1.3-.3.7-.4,1.2-.4s.6,0,.9.2c.3.1.5.3.6.6.2.3.3.6.4,1,0,.4.1.9.1,1.5s0,1.4-.2,1.8c-.2.5-.4.8-.7,1.1-.3.3-.7.4-1.2.4s-1.1-.2-1.5-.7c-.4-.5-.6-1.4-.6-2.6ZM65.4,173.3c0,1.1.1,1.8.4,2.1.2.3.6.5.9.5s.7-.2.9-.5c.2-.4.4-1.1.4-2.1s-.1-1.8-.4-2.1c-.2-.3-.6-.5-.9-.5s-.7.2-.9.5c-.3.4-.4,1.1-.4,2.2Z"/>
          <path class="cls-1" d="M69.6,173.3c0-.8,0-1.4.2-1.8.2-.5.4-.8.7-1.1.3-.3.7-.4,1.2-.4s.6,0,.9.2c.3.1.5.3.6.6.2.3.3.6.4,1,0,.4.1.9.1,1.5s0,1.4-.2,1.8c-.2.5-.4.8-.7,1.1-.3.3-.7.4-1.2.4s-1.1-.2-1.5-.7c-.4-.5-.6-1.4-.6-2.6ZM70.4,173.3c0,1.1.1,1.8.4,2.1.2.3.6.5.9.5s.7-.2.9-.5c.2-.4.4-1.1.4-2.1s-.1-1.8-.4-2.1c-.2-.3-.6-.5-.9-.5s-.7.2-.9.5c-.3.4-.4,1.1-.4,2.2Z"/>
          <path class="cls-1" d="M74.6,173.3c0-.8,0-1.4.2-1.8.2-.5.4-.8.7-1.1.3-.3.7-.4,1.2-.4s.6,0,.9.2c.3.1.5.3.6.6.2.3.3.6.4,1,0,.4.1.9.1,1.5s0,1.4-.2,1.8c-.2.5-.4.8-.7,1.1-.3.3-.7.4-1.2.4s-1.1-.2-1.5-.7c-.4-.5-.6-1.4-.6-2.6ZM75.4,173.3c0,1.1.1,1.8.4,2.1.2.3.6.5.9.5s.7-.2.9-.5c.2-.4.4-1.1.4-2.1s-.1-1.8-.4-2.1c-.2-.3-.6-.5-.9-.5s-.7.2-.9.5c-.3.4-.4,1.1-.4,2.2Z"/>
          <path class="cls-1" d="M79.6,173.3c0-.8,0-1.4.2-1.8.2-.5.4-.8.7-1.1.3-.3.7-.4,1.2-.4s.6,0,.9.2c.3.1.5.3.6.6.2.3.3.6.4,1,0,.4.1.9.1,1.5s0,1.4-.2,1.8c-.2.5-.4.8-.7,1.1-.3.3-.7.4-1.2.4s-1.1-.2-1.5-.7c-.4-.5-.6-1.4-.6-2.6ZM80.4,173.3c0,1.1.1,1.8.4,2.1.2.3.6.5.9.5s.7-.2.9-.5c.2-.4.4-1.1.4-2.1s-.1-1.8-.4-2.1c-.2-.3-.6-.5-.9-.5s-.7.2-.9.5c-.3.4-.4,1.1-.4,2.2Z"/>
          <path class="cls-1" d="M84.6,173.3c0-.8,0-1.4.2-1.8.2-.5.4-.8.7-1.1.3-.3.7-.4,1.2-.4s.6,0,.9.2c.3.1.5.3.6.6.2.3.3.6.4,1,0,.4.1.9.1,1.5s0,1.4-.2,1.8c-.2.5-.4.8-.7,1.1-.3.3-.7.4-1.2.4s-1.1-.2-1.5-.7c-.4-.5-.6-1.4-.6-2.6ZM85.4,173.3c0,1.1.1,1.8.4,2.1.2.3.6.5.9.5s.7-.2.9-.5c.2-.4.4-1.1.4-2.1s-.1-1.8-.4-2.1c-.2-.3-.6-.5-.9-.5s-.7.2-.9.5c-.3.4-.4,1.1-.4,2.2Z"/>
          <path class="cls-1" d="M89.6,173.3c0-.8,0-1.4.2-1.8.2-.5.4-.8.7-1.1.3-.3.7-.4,1.2-.4s.6,0,.9.2c.3.1.5.3.6.6.2.3.3.6.4,1,0,.4.1.9.1,1.5s0,1.4-.2,1.8c-.2.5-.4.8-.7,1.1-.3.3-.7.4-1.2.4s-1.1-.2-1.5-.7c-.4-.5-.6-1.4-.6-2.6ZM90.4,173.3c0,1.1.1,1.8.4,2.1.2.3.6.5.9.5s.7-.2.9-.5c.2-.4.4-1.1.4-2.1s-.1-1.8-.4-2.1c-.2-.3-.6-.5-.9-.5s-.7.2-.9.5c-.3.4-.4,1.1-.4,2.2Z"/>
          <path class="cls-1" d="M94.6,173.3c0-.8,0-1.4.2-1.8.2-.5.4-.8.7-1.1.3-.3.7-.4,1.2-.4s.6,0,.9.2c.3.1.5.3.6.6.2.3.3.6.4,1,0,.4.1.9.1,1.5s0,1.4-.2,1.8c-.2.5-.4.8-.7,1.1-.3.3-.7.4-1.2.4s-1.1-.2-1.5-.7c-.4-.5-.6-1.4-.6-2.6ZM95.4,173.3c0,1.1.1,1.8.4,2.1.2.3.6.5.9.5s.7-.2.9-.5c.2-.4.4-1.1.4-2.1s-.1-1.8-.4-2.1c-.2-.3-.6-.5-.9-.5s-.7.2-.9.5c-.3.4-.4,1.1-.4,2.2Z"/>
          <path class="cls-1" d="M99.6,173.3c0-.8,0-1.4.2-1.8.2-.5.4-.8.7-1.1.3-.3.7-.4,1.2-.4s.6,0,.9.2c.3.1.5.3.6.6.2.3.3.6.4,1,0,.4.1.9.1,1.5s0,1.4-.2,1.8c-.2.5-.4.8-.7,1.1-.3.3-.7.4-1.2.4s-1.1-.2-1.5-.7c-.4-.5-.6-1.4-.6-2.6ZM100.5,173.3c0,1.1.1,1.8.4,2.1.2.3.6.5.9.5s.7-.2.9-.5c.2-.4.4-1.1.4-2.1s-.1-1.8-.4-2.1c-.2-.3-.6-.5-.9-.5s-.7.2-.9.5c-.3.4-.4,1.1-.4,2.2Z"/>
          <path class="cls-1" d="M104.6,173.3c0-.8,0-1.4.2-1.8.2-.5.4-.8.7-1.1.3-.3.7-.4,1.2-.4s.6,0,.9.2c.3.1.5.3.6.6.2.3.3.6.4,1,0,.4.1.9.1,1.5s0,1.4-.2,1.8c-.2.5-.4.8-.7,1.1-.3.3-.7.4-1.2.4s-1.1-.2-1.5-.7c-.4-.5-.6-1.4-.6-2.6ZM105.5,173.3c0,1.1.1,1.8.4,2.1.2.3.6.5.9.5s.7-.2.9-.5c.2-.4.4-1.1.4-2.1s-.1-1.8-.4-2.1c-.2-.3-.6-.5-.9-.5s-.7.2-.9.5c-.3.4-.4,1.1-.4,2.2Z"/>
          <path class="cls-1" d="M109.7,173.3c0-.8,0-1.4.2-1.8.2-.5.4-.8.7-1.1.3-.3.7-.4,1.2-.4s.6,0,.9.2c.3.1.5.3.6.6.2.3.3.6.4,1,0,.4.1.9.1,1.5s0,1.4-.2,1.8c-.2.5-.4.8-.7,1.1-.3.3-.7.4-1.2.4s-1.1-.2-1.5-.7c-.4-.5-.6-1.4-.6-2.6ZM110.5,173.3c0,1.1.1,1.8.4,2.1.2.3.6.5.9.5s.7-.2.9-.5c.2-.4.4-1.1.4-2.1s-.1-1.8-.4-2.1c-.2-.3-.6-.5-.9-.5s-.7.2-.9.5c-.3.4-.4,1.1-.4,2.2Z"/>
          <path class="cls-1" d="M114.7,173.3c0-.8,0-1.4.2-1.8.2-.5.4-.8.7-1.1.3-.3.7-.4,1.2-.4s.6,0,.9.2c.3.1.5.3.6.6.2.3.3.6.4,1,0,.4.1.9.1,1.5s0,1.4-.2,1.8c-.2.5-.4.8-.7,1.1-.3.3-.7.4-1.2.4s-1.1-.2-1.5-.7c-.4-.5-.6-1.4-.6-2.6ZM115.5,173.3c0,1.1.1,1.8.4,2.1.2.3.6.5.9.5s.7-.2.9-.5c.2-.4.4-1.1.4-2.1s-.1-1.8-.4-2.1c-.2-.3-.6-.5-.9-.5s-.7.2-.9.5c-.3.4-.4,1.1-.4,2.2Z"/>
          <path class="cls-1" d="M119.7,173.3c0-.8,0-1.4.2-1.8.2-.5.4-.8.7-1.1.3-.3.7-.4,1.2-.4s.6,0,.9.2c.3.1.5.3.6.6.2.3.3.6.4,1,0,.4.1.9.1,1.5s0,1.4-.2,1.8c-.2.5-.4.8-.7,1.1-.3.3-.7.4-1.2.4s-1.1-.2-1.5-.7c-.4-.5-.6-1.4-.6-2.6ZM120.5,173.3c0,1.1.1,1.8.4,2.1.2.3.6.5.9.5s.7-.2.9-.5c.2-.4.4-1.1.4-2.1s-.1-1.8-.4-2.1c-.2-.3-.6-.5-.9-.5s-.7.2-.9.5c-.3.4-.4,1.1-.4,2.2Z"/>
          <path class="cls-1" d="M124.7,173.3c0-.8,0-1.4.2-1.8.2-.5.4-.8.7-1.1.3-.3.7-.4,1.2-.4s.6,0,.9.2c.3.1.5.3.6.6.2.3.3.6.4,1,0,.4.1.9.1,1.5s0,1.4-.2,1.8c-.2.5-.4.8-.7,1.1-.3.3-.7.4-1.2.4s-1.1-.2-1.5-.7c-.4-.5-.6-1.4-.6-2.6ZM125.5,173.3c0,1.1.1,1.8.4,2.1.2.3.6.5.9.5s.7-.2.9-.5c.2-.4.4-1.1.4-2.1s-.1-1.8-.4-2.1c-.2-.3-.6-.5-.9-.5s-.7.2-.9.5c-.3.4-.4,1.1-.4,2.2Z"/>
          <path class="cls-1" d="M129.7,173.3c0-.8,0-1.4.2-1.8.2-.5.4-.8.7-1.1.3-.3.7-.4,1.2-.4s.6,0,.9.2c.3.1.5.3.6.6.2.3.3.6.4,1,0,.4.1.9.1,1.5s0,1.4-.2,1.8c-.2.5-.4.8-.7,1.1-.3.3-.7.4-1.2.4s-1.1-.2-1.5-.7c-.4-.5-.6-1.4-.6-2.6ZM130.5,173.3c0,1.1.1,1.8.4,2.1.2.3.6.5.9.5s.7-.2.9-.5c.2-.4.4-1.1.4-2.1s-.1-1.8-.4-2.1c-.2-.3-.6-.5-.9-.5s-.7.2-.9.5c-.3.4-.4,1.1-.4,2.2Z"/>
          <path class="cls-1" d="M137.7,176.4h-.8v-5c-.2.2-.4.4-.8.5-.3.2-.6.3-.8.4v-.8c.4-.2.8-.5,1.2-.8.3-.3.6-.6.7-.9h.5v6.5Z"/>
          <path class="cls-1" d="M9.5,184.1c0-.8,0-1.4.2-1.8.2-.5.4-.8.7-1.1.3-.3.7-.4,1.2-.4s.6,0,.9.2c.3.1.5.3.6.6.2.3.3.6.4,1,0,.4.1.9.1,1.5s0,1.4-.2,1.8c-.2.5-.4.8-.7,1.1-.3.3-.7.4-1.2.4s-1.1-.2-1.5-.7c-.4-.5-.6-1.4-.6-2.6ZM10.4,184.1c0,1.1.1,1.8.4,2.1.2.3.6.5.9.5s.7-.2.9-.5c.2-.4.4-1.1.4-2.1s-.1-1.8-.4-2.1c-.2-.3-.6-.5-.9-.5s-.7.2-.9.5c-.3.4-.4,1.1-.4,2.2Z"/>
          <path class="cls-1" d="M14.5,184.1c0-.8,0-1.4.2-1.8.2-.5.4-.8.7-1.1.3-.3.7-.4,1.2-.4s.6,0,.9.2c.3.1.5.3.6.6.2.3.3.6.4,1,0,.4.1.9.1,1.5s0,1.4-.2,1.8c-.2.5-.4.8-.7,1.1-.3.3-.7.4-1.2.4s-1.1-.2-1.5-.7c-.4-.5-.6-1.4-.6-2.6h0ZM15.4,184.1c0,1.1.1,1.8.4,2.1.2.3.6.5.9.5s.7-.2.9-.5c.2-.4.4-1.1.4-2.1s-.1-1.8-.4-2.1c-.2-.3-.6-.5-.9-.5s-.7.2-.9.5c-.3.4-.4,1.1-.4,2.2Z"/>
          <path class="cls-1" d="M19.6,184.1c0-.8,0-1.4.2-1.8.2-.5.4-.8.7-1.1.3-.3.7-.4,1.2-.4s.6,0,.9.2c.3.1.5.3.6.6.2.3.3.6.4,1,0,.4.1.9.1,1.5s0,1.4-.2,1.8c-.2.5-.4.8-.7,1.1-.3.3-.7.4-1.2.4s-1.1-.2-1.5-.7c-.4-.5-.6-1.4-.6-2.6h0ZM20.4,184.1c0,1.1.1,1.8.4,2.1.2.3.6.5.9.5s.7-.2.9-.5c.2-.4.4-1.1.4-2.1s-.1-1.8-.4-2.1c-.2-.3-.6-.5-.9-.5s-.7.2-.9.5c-.3.4-.4,1.1-.4,2.2Z"/>
          <path class="cls-1" d="M24.6,184.1c0-.8,0-1.4.2-1.8.2-.5.4-.8.7-1.1.3-.3.7-.4,1.2-.4s.6,0,.9.2c.3.1.5.3.6.6.2.3.3.6.4,1,0,.4.1.9.1,1.5s0,1.4-.2,1.8c-.2.5-.4.8-.7,1.1-.3.3-.7.4-1.2.4s-1.1-.2-1.5-.7c-.4-.5-.6-1.4-.6-2.6ZM25.4,184.1c0,1.1.1,1.8.4,2.1.2.3.6.5.9.5s.7-.2.9-.5c.2-.4.4-1.1.4-2.1s-.1-1.8-.4-2.1c-.2-.3-.6-.5-.9-.5s-.7.2-.9.5c-.3.4-.4,1.1-.4,2.2Z"/>
          <path class="cls-1" d="M29.6,184.1c0-.8,0-1.4.2-1.8.2-.5.4-.8.7-1.1.3-.3.7-.4,1.2-.4s.6,0,.9.2c.3.1.5.3.6.6.2.3.3.6.4,1,0,.4.1.9.1,1.5s0,1.4-.2,1.8c-.2.5-.4.8-.7,1.1-.3.3-.7.4-1.2.4s-1.1-.2-1.5-.7c-.4-.5-.6-1.4-.6-2.6ZM30.4,184.1c0,1.1.1,1.8.4,2.1.2.3.6.5.9.5s.7-.2.9-.5c.2-.4.4-1.1.4-2.1s-.1-1.8-.4-2.1c-.2-.3-.6-.5-.9-.5s-.7.2-.9.5c-.3.4-.4,1.1-.4,2.2Z"/>
          <path class="cls-1" d="M34.6,184.1c0-.8,0-1.4.2-1.8.2-.5.4-.8.7-1.1.3-.3.7-.4,1.2-.4s.6,0,.9.2c.3.1.5.3.6.6.2.3.3.6.4,1,0,.4.1.9.1,1.5s0,1.4-.2,1.8c-.2.5-.4.8-.7,1.1-.3.3-.7.4-1.2.4s-1.1-.2-1.5-.7c-.4-.5-.6-1.4-.6-2.6ZM35.4,184.1c0,1.1.1,1.8.4,2.1.2.3.6.5.9.5s.7-.2.9-.5c.2-.4.4-1.1.4-2.1s-.1-1.8-.4-2.1c-.2-.3-.6-.5-.9-.5s-.7.2-.9.5c-.3.4-.4,1.1-.4,2.2Z"/>
          <path class="cls-1" d="M39.6,184.1c0-.8,0-1.4.2-1.8.2-.5.4-.8.7-1.1.3-.3.7-.4,1.2-.4s.6,0,.9.2c.3.1.5.3.6.6.2.3.3.6.4,1,0,.4.1.9.1,1.5s0,1.4-.2,1.8c-.2.5-.4.8-.7,1.1-.3.3-.7.4-1.2.4s-1.1-.2-1.5-.7c-.4-.5-.6-1.4-.6-2.6ZM40.4,184.1c0,1.1.1,1.8.4,2.1.2.3.6.5.9.5s.7-.2.9-.5c.2-.4.4-1.1.4-2.1s-.1-1.8-.4-2.1c-.2-.3-.6-.5-.9-.5s-.7.2-.9.5c-.3.4-.4,1.1-.4,2.2Z"/>
          <path class="cls-1" d="M44.6,184.1c0-.8,0-1.4.2-1.8.2-.5.4-.8.7-1.1.3-.3.7-.4,1.2-.4s.6,0,.9.2c.3.1.5.3.6.6.2.3.3.6.4,1,0,.4.1.9.1,1.5s0,1.4-.2,1.8c-.2.5-.4.8-.7,1.1-.3.3-.7.4-1.2.4s-1.1-.2-1.5-.7c-.4-.5-.6-1.4-.6-2.6ZM45.4,184.1c0,1.1.1,1.8.4,2.1.2.3.6.5.9.5s.7-.2.9-.5c.2-.4.4-1.1.4-2.1s-.1-1.8-.4-2.1c-.2-.3-.6-.5-.9-.5s-.7.2-.9.5c-.3.4-.4,1.1-.4,2.2Z"/>
          <path class="cls-1" d="M49.6,184.1c0-.8,0-1.4.2-1.8.2-.5.4-.8.7-1.1.3-.3.7-.4,1.2-.4s.6,0,.9.2c.3.1.5.3.6.6.2.3.3.6.4,1,0,.4.1.9.1,1.5s0,1.4-.2,1.8c-.2.5-.4.8-.7,1.1-.3.3-.7.4-1.2.4s-1.1-.2-1.5-.7c-.4-.5-.6-1.4-.6-2.6ZM50.4,184.1c0,1.1.1,1.8.4,2.1.2.3.6.5.9.5s.7-.2.9-.5c.2-.4.4-1.1.4-2.1s-.1-1.8-.4-2.1c-.2-.3-.6-.5-.9-.5s-.7.2-.9.5c-.3.4-.4,1.1-.4,2.2Z"/>
          <path class="cls-1" d="M54.6,184.1c0-.8,0-1.4.2-1.8.2-.5.4-.8.7-1.1.3-.3.7-.4,1.2-.4s.6,0,.9.2c.3.1.5.3.6.6.2.3.3.6.4,1,0,.4.1.9.1,1.5s0,1.4-.2,1.8c-.2.5-.4.8-.7,1.1-.3.3-.7.4-1.2.4s-1.1-.2-1.5-.7c-.4-.5-.6-1.4-.6-2.6ZM55.4,184.1c0,1.1.1,1.8.4,2.1.2.3.6.5.9.5s.7-.2.9-.5c.2-.4.4-1.1.4-2.1s-.1-1.8-.4-2.1c-.2-.3-.6-.5-.9-.5s-.7.2-.9.5c-.3.4-.4,1.1-.4,2.2Z"/>
          <path class="cls-1" d="M59.6,184.1c0-.8,0-1.4.2-1.8.2-.5.4-.8.7-1.1.3-.3.7-.4,1.2-.4s.6,0,.9.2c.3.1.5.3.6.6.2.3.3.6.4,1,0,.4.1.9.1,1.5s0,1.4-.2,1.8c-.2.5-.4.8-.7,1.1-.3.3-.7.4-1.2.4s-1.1-.2-1.5-.7c-.4-.5-.6-1.4-.6-2.6ZM60.4,184.1c0,1.1.1,1.8.4,2.1.2.3.6.5.9.5s.7-.2.9-.5c.2-.4.4-1.1.4-2.1s-.1-1.8-.4-2.1c-.2-.3-.6-.5-.9-.5s-.7.2-.9.5c-.3.4-.4,1.1-.4,2.2Z"/>
          <path class="cls-1" d="M64.6,184.1c0-.8,0-1.4.2-1.8.2-.5.4-.8.7-1.1.3-.3.7-.4,1.2-.4s.6,0,.9.2c.3.1.5.3.6.6.2.3.3.6.4,1,0,.4.1.9.1,1.5s0,1.4-.2,1.8c-.2.5-.4.8-.7,1.1-.3.3-.7.4-1.2.4s-1.1-.2-1.5-.7c-.4-.5-.6-1.4-.6-2.6ZM65.4,184.1c0,1.1.1,1.8.4,2.1.2.3.6.5.9.5s.7-.2.9-.5c.2-.4.4-1.1.4-2.1s-.1-1.8-.4-2.1c-.2-.3-.6-.5-.9-.5s-.7.2-.9.5c-.3.4-.4,1.1-.4,2.2Z"/>
          <path class="cls-1" d="M69.6,184.1c0-.8,0-1.4.2-1.8.2-.5.4-.8.7-1.1.3-.3.7-.4,1.2-.4s.6,0,.9.2c.3.1.5.3.6.6.2.3.3.6.4,1,0,.4.1.9.1,1.5s0,1.4-.2,1.8c-.2.5-.4.8-.7,1.1-.3.3-.7.4-1.2.4s-1.1-.2-1.5-.7c-.4-.5-.6-1.4-.6-2.6ZM70.4,184.1c0,1.1.1,1.8.4,2.1.2.3.6.5.9.5s.7-.2.9-.5c.2-.4.4-1.1.4-2.1s-.1-1.8-.4-2.1c-.2-.3-.6-.5-.9-.5s-.7.2-.9.5c-.3.4-.4,1.1-.4,2.2Z"/>
          <path class="cls-1" d="M74.6,184.1c0-.8,0-1.4.2-1.8.2-.5.4-.8.7-1.1.3-.3.7-.4,1.2-.4s.6,0,.9.2c.3.1.5.3.6.6.2.3.3.6.4,1,0,.4.1.9.1,1.5s0,1.4-.2,1.8c-.2.5-.4.8-.7,1.1-.3.3-.7.4-1.2.4s-1.1-.2-1.5-.7c-.4-.5-.6-1.4-.6-2.6ZM75.4,184.1c0,1.1.1,1.8.4,2.1.2.3.6.5.9.5s.7-.2.9-.5c.2-.4.4-1.1.4-2.1s-.1-1.8-.4-2.1c-.2-.3-.6-.5-.9-.5s-.7.2-.9.5c-.3.4-.4,1.1-.4,2.2Z"/>
          <path class="cls-1" d="M79.6,184.1c0-.8,0-1.4.2-1.8.2-.5.4-.8.7-1.1.3-.3.7-.4,1.2-.4s.6,0,.9.2c.3.1.5.3.6.6.2.3.3.6.4,1,0,.4.1.9.1,1.5s0,1.4-.2,1.8c-.2.5-.4.8-.7,1.1-.3.3-.7.4-1.2.4s-1.1-.2-1.5-.7c-.4-.5-.6-1.4-.6-2.6ZM80.4,184.1c0,1.1.1,1.8.4,2.1.2.3.6.5.9.5s.7-.2.9-.5c.2-.4.4-1.1.4-2.1s-.1-1.8-.4-2.1c-.2-.3-.6-.5-.9-.5s-.7.2-.9.5c-.3.4-.4,1.1-.4,2.2Z"/>
          <path class="cls-1" d="M84.6,184.1c0-.8,0-1.4.2-1.8.2-.5.4-.8.7-1.1.3-.3.7-.4,1.2-.4s.6,0,.9.2c.3.1.5.3.6.6.2.3.3.6.4,1,0,.4.1.9.1,1.5s0,1.4-.2,1.8c-.2.5-.4.8-.7,1.1-.3.3-.7.4-1.2.4s-1.1-.2-1.5-.7c-.4-.5-.6-1.4-.6-2.6ZM85.4,184.1c0,1.1.1,1.8.4,2.1.2.3.6.5.9.5s.7-.2.9-.5c.2-.4.4-1.1.4-2.1s-.1-1.8-.4-2.1c-.2-.3-.6-.5-.9-.5s-.7.2-.9.5c-.3.4-.4,1.1-.4,2.2Z"/>
          <path class="cls-1" d="M89.6,184.1c0-.8,0-1.4.2-1.8.2-.5.4-.8.7-1.1.3-.3.7-.4,1.2-.4s.6,0,.9.2c.3.1.5.3.6.6.2.3.3.6.4,1,0,.4.1.9.1,1.5s0,1.4-.2,1.8c-.2.5-.4.8-.7,1.1-.3.3-.7.4-1.2.4s-1.1-.2-1.5-.7c-.4-.5-.6-1.4-.6-2.6ZM90.4,184.1c0,1.1.1,1.8.4,2.1.2.3.6.5.9.5s.7-.2.9-.5c.2-.4.4-1.1.4-2.1s-.1-1.8-.4-2.1c-.2-.3-.6-.5-.9-.5s-.7.2-.9.5c-.3.4-.4,1.1-.4,2.2Z"/>
          <path class="cls-1" d="M94.6,184.1c0-.8,0-1.4.2-1.8.2-.5.4-.8.7-1.1.3-.3.7-.4,1.2-.4s.6,0,.9.2c.3.1.5.3.6.6.2.3.3.6.4,1,0,.4.1.9.1,1.5s0,1.4-.2,1.8c-.2.5-.4.8-.7,1.1-.3.3-.7.4-1.2.4s-1.1-.2-1.5-.7c-.4-.5-.6-1.4-.6-2.6ZM95.4,184.1c0,1.1.1,1.8.4,2.1.2.3.6.5.9.5s.7-.2.9-.5c.2-.4.4-1.1.4-2.1s-.1-1.8-.4-2.1c-.2-.3-.6-.5-.9-.5s-.7.2-.9.5c-.3.4-.4,1.1-.4,2.2Z"/>
          <path class="cls-1" d="M99.6,184.1c0-.8,0-1.4.2-1.8.2-.5.4-.8.7-1.1.3-.3.7-.4,1.2-.4s.6,0,.9.2c.3.1.5.3.6.6.2.3.3.6.4,1,0,.4.1.9.1,1.5s0,1.4-.2,1.8c-.2.5-.4.8-.7,1.1-.3.3-.7.4-1.2.4s-1.1-.2-1.5-.7c-.4-.5-.6-1.4-.6-2.6ZM100.5,184.1c0,1.1.1,1.8.4,2.1.2.3.6.5.9.5s.7-.2.9-.5c.2-.4.4-1.1.4-2.1s-.1-1.8-.4-2.1c-.2-.3-.6-.5-.9-.5s-.7.2-.9.5c-.3.4-.4,1.1-.4,2.2Z"/>
          <path class="cls-1" d="M104.6,184.1c0-.8,0-1.4.2-1.8.2-.5.4-.8.7-1.1.3-.3.7-.4,1.2-.4s.6,0,.9.2c.3.1.5.3.6.6.2.3.3.6.4,1,0,.4.1.9.1,1.5s0,1.4-.2,1.8c-.2.5-.4.8-.7,1.1-.3.3-.7.4-1.2.4s-1.1-.2-1.5-.7c-.4-.5-.6-1.4-.6-2.6ZM105.5,184.1c0,1.1.1,1.8.4,2.1.2.3.6.5.9.5s.7-.2.9-.5c.2-.4.4-1.1.4-2.1s-.1-1.8-.4-2.1c-.2-.3-.6-.5-.9-.5s-.7.2-.9.5c-.3.4-.4,1.1-.4,2.2Z"/>
          <path class="cls-1" d="M109.7,184.1c0-.8,0-1.4.2-1.8.2-.5.4-.8.7-1.1.3-.3.7-.4,1.2-.4s.6,0,.9.2c.3.1.5.3.6.6.2.3.3.6.4,1,0,.4.1.9.1,1.5s0,1.4-.2,1.8c-.2.5-.4.8-.7,1.1-.3.3-.7.4-1.2.4s-1.1-.2-1.5-.7c-.4-.5-.6-1.4-.6-2.6ZM110.5,184.1c0,1.1.1,1.8.4,2.1.2.3.6.5.9.5s.7-.2.9-.5c.2-.4.4-1.1.4-2.1s-.1-1.8-.4-2.1c-.2-.3-.6-.5-.9-.5s-.7.2-.9.5c-.3.4-.4,1.1-.4,2.2Z"/>
          <path class="cls-1" d="M114.7,184.1c0-.8,0-1.4.2-1.8.2-.5.4-.8.7-1.1.3-.3.7-.4,1.2-.4s.6,0,.9.2c.3.1.5.3.6.6.2.3.3.6.4,1,0,.4.1.9.1,1.5s0,1.4-.2,1.8c-.2.5-.4.8-.7,1.1-.3.3-.7.4-1.2.4s-1.1-.2-1.5-.7c-.4-.5-.6-1.4-.6-2.6ZM115.5,184.1c0,1.1.1,1.8.4,2.1.2.3.6.5.9.5s.7-.2.9-.5c.2-.4.4-1.1.4-2.1s-.1-1.8-.4-2.1c-.2-.3-.6-.5-.9-.5s-.7.2-.9.5c-.3.4-.4,1.1-.4,2.2Z"/>
          <path class="cls-1" d="M119.7,184.1c0-.8,0-1.4.2-1.8.2-.5.4-.8.7-1.1.3-.3.7-.4,1.2-.4s.6,0,.9.2c.3.1.5.3.6.6.2.3.3.6.4,1,0,.4.1.9.1,1.5s0,1.4-.2,1.8c-.2.5-.4.8-.7,1.1-.3.3-.7.4-1.2.4s-1.1-.2-1.5-.7c-.4-.5-.6-1.4-.6-2.6ZM120.5,184.1c0,1.1.1,1.8.4,2.1.2.3.6.5.9.5s.7-.2.9-.5c.2-.4.4-1.1.4-2.1s-.1-1.8-.4-2.1c-.2-.3-.6-.5-.9-.5s-.7.2-.9.5c-.3.4-.4,1.1-.4,2.2Z"/>
          <path class="cls-1" d="M124.7,184.1c0-.8,0-1.4.2-1.8.2-.5.4-.8.7-1.1.3-.3.7-.4,1.2-.4s.6,0,.9.2c.3.1.5.3.6.6.2.3.3.6.4,1,0,.4.1.9.1,1.5s0,1.4-.2,1.8c-.2.5-.4.8-.7,1.1-.3.3-.7.4-1.2.4s-1.1-.2-1.5-.7c-.4-.5-.6-1.4-.6-2.6ZM125.5,184.1c0,1.1.1,1.8.4,2.1.2.3.6.5.9.5s.7-.2.9-.5c.2-.4.4-1.1.4-2.1s-.1-1.8-.4-2.1c-.2-.3-.6-.5-.9-.5s-.7.2-.9.5c-.3.4-.4,1.1-.4,2.2Z"/>
          <path class="cls-1" d="M132.7,187.2h-.8v-5c-.2.2-.4.4-.8.5-.3.2-.6.3-.8.4v-.8c.4-.2.8-.5,1.2-.8.3-.3.6-.6.7-.9h.5s0,6.5,0,6.5Z"/>
          <path class="cls-1" d="M137.7,187.2h-.8v-5c-.2.2-.4.4-.8.5-.3.2-.6.3-.8.4v-.8c.4-.2.8-.5,1.2-.8.3-.3.6-.6.7-.9h.5v6.5Z"/>
          <path class="cls-1" d="M9.5,194.9c0-.8,0-1.4.2-1.8.2-.5.4-.8.7-1.1.3-.3.7-.4,1.2-.4s.6,0,.9.2c.3.1.5.3.6.6.2.3.3.6.4,1,0,.4.1.9.1,1.5s0,1.4-.2,1.8c-.2.5-.4.8-.7,1.1-.3.3-.7.4-1.2.4s-1.1-.2-1.5-.7c-.4-.5-.6-1.4-.6-2.6ZM10.4,194.9c0,1.1.1,1.8.4,2.1.2.3.6.5.9.5s.7-.2.9-.5c.2-.4.4-1.1.4-2.1s-.1-1.8-.4-2.1c-.2-.3-.6-.5-.9-.5s-.7.2-.9.5c-.3.4-.4,1.1-.4,2.2Z"/>
          <path class="cls-1" d="M14.5,194.9c0-.8,0-1.4.2-1.8.2-.5.4-.8.7-1.1.3-.3.7-.4,1.2-.4s.6,0,.9.2c.3.1.5.3.6.6.2.3.3.6.4,1,0,.4.1.9.1,1.5s0,1.4-.2,1.8c-.2.5-.4.8-.7,1.1-.3.3-.7.4-1.2.4s-1.1-.2-1.5-.7c-.4-.5-.6-1.4-.6-2.6h0ZM15.4,194.9c0,1.1.1,1.8.4,2.1.2.3.6.5.9.5s.7-.2.9-.5c.2-.4.4-1.1.4-2.1s-.1-1.8-.4-2.1c-.2-.3-.6-.5-.9-.5s-.7.2-.9.5c-.3.4-.4,1.1-.4,2.2Z"/>
          <path class="cls-1" d="M19.6,194.9c0-.8,0-1.4.2-1.8.2-.5.4-.8.7-1.1.3-.3.7-.4,1.2-.4s.6,0,.9.2c.3.1.5.3.6.6.2.3.3.6.4,1,0,.4.1.9.1,1.5s0,1.4-.2,1.8c-.2.5-.4.8-.7,1.1-.3.3-.7.4-1.2.4s-1.1-.2-1.5-.7c-.4-.5-.6-1.4-.6-2.6h0ZM20.4,194.9c0,1.1.1,1.8.4,2.1.2.3.6.5.9.5s.7-.2.9-.5c.2-.4.4-1.1.4-2.1s-.1-1.8-.4-2.1c-.2-.3-.6-.5-.9-.5s-.7.2-.9.5c-.3.4-.4,1.1-.4,2.2Z"/>
          <path class="cls-1" d="M24.6,194.9c0-.8,0-1.4.2-1.8.2-.5.4-.8.7-1.1.3-.3.7-.4,1.2-.4s.6,0,.9.2c.3.1.5.3.6.6.2.3.3.6.4,1,0,.4.1.9.1,1.5s0,1.4-.2,1.8c-.2.5-.4.8-.7,1.1-.3.3-.7.4-1.2.4s-1.1-.2-1.5-.7c-.4-.5-.6-1.4-.6-2.6ZM25.4,194.9c0,1.1.1,1.8.4,2.1.2.3.6.5.9.5s.7-.2.9-.5c.2-.4.4-1.1.4-2.1s-.1-1.8-.4-2.1c-.2-.3-.6-.5-.9-.5s-.7.2-.9.5c-.3.4-.4,1.1-.4,2.2Z"/>
          <path class="cls-1" d="M29.6,194.9c0-.8,0-1.4.2-1.8.2-.5.4-.8.7-1.1.3-.3.7-.4,1.2-.4s.6,0,.9.2c.3.1.5.3.6.6.2.3.3.6.4,1,0,.4.1.9.1,1.5s0,1.4-.2,1.8c-.2.5-.4.8-.7,1.1-.3.3-.7.4-1.2.4s-1.1-.2-1.5-.7c-.4-.5-.6-1.4-.6-2.6ZM30.4,194.9c0,1.1.1,1.8.4,2.1.2.3.6.5.9.5s.7-.2.9-.5c.2-.4.4-1.1.4-2.1s-.1-1.8-.4-2.1c-.2-.3-.6-.5-.9-.5s-.7.2-.9.5c-.3.4-.4,1.1-.4,2.2Z"/>
          <path class="cls-1" d="M34.6,194.9c0-.8,0-1.4.2-1.8.2-.5.4-.8.7-1.1.3-.3.7-.4,1.2-.4s.6,0,.9.2c.3.1.5.3.6.6.2.3.3.6.4,1,0,.4.1.9.1,1.5s0,1.4-.2,1.8c-.2.5-.4.8-.7,1.1-.3.3-.7.4-1.2.4s-1.1-.2-1.5-.7c-.4-.5-.6-1.4-.6-2.6ZM35.4,194.9c0,1.1.1,1.8.4,2.1.2.3.6.5.9.5s.7-.2.9-.5c.2-.4.4-1.1.4-2.1s-.1-1.8-.4-2.1c-.2-.3-.6-.5-.9-.5s-.7.2-.9.5c-.3.4-.4,1.1-.4,2.2Z"/>
          <path class="cls-1" d="M39.6,194.9c0-.8,0-1.4.2-1.8.2-.5.4-.8.7-1.1.3-.3.7-.4,1.2-.4s.6,0,.9.2c.3.1.5.3.6.6.2.3.3.6.4,1,0,.4.1.9.1,1.5s0,1.4-.2,1.8c-.2.5-.4.8-.7,1.1-.3.3-.7.4-1.2.4s-1.1-.2-1.5-.7c-.4-.5-.6-1.4-.6-2.6ZM40.4,194.9c0,1.1.1,1.8.4,2.1.2.3.6.5.9.5s.7-.2.9-.5c.2-.4.4-1.1.4-2.1s-.1-1.8-.4-2.1c-.2-.3-.6-.5-.9-.5s-.7.2-.9.5c-.3.4-.4,1.1-.4,2.2Z"/>
          <path class="cls-1" d="M44.6,194.9c0-.8,0-1.4.2-1.8.2-.5.4-.8.7-1.1.3-.3.7-.4,1.2-.4s.6,0,.9.2c.3.1.5.3.6.6.2.3.3.6.4,1,0,.4.1.9.1,1.5s0,1.4-.2,1.8c-.2.5-.4.8-.7,1.1-.3.3-.7.4-1.2.4s-1.1-.2-1.5-.7c-.4-.5-.6-1.4-.6-2.6ZM45.4,194.9c0,1.1.1,1.8.4,2.1.2.3.6.5.9.5s.7-.2.9-.5c.2-.4.4-1.1.4-2.1s-.1-1.8-.4-2.1c-.2-.3-.6-.5-.9-.5s-.7.2-.9.5c-.3.4-.4,1.1-.4,2.2Z"/>
          <path class="cls-1" d="M49.6,194.9c0-.8,0-1.4.2-1.8.2-.5.4-.8.7-1.1.3-.3.7-.4,1.2-.4s.6,0,.9.2c.3.1.5.3.6.6.2.3.3.6.4,1,0,.4.1.9.1,1.5s0,1.4-.2,1.8c-.2.5-.4.8-.7,1.1-.3.3-.7.4-1.2.4s-1.1-.2-1.5-.7c-.4-.5-.6-1.4-.6-2.6ZM50.4,194.9c0,1.1.1,1.8.4,2.1.2.3.6.5.9.5s.7-.2.9-.5c.2-.4.4-1.1.4-2.1s-.1-1.8-.4-2.1c-.2-.3-.6-.5-.9-.5s-.7.2-.9.5c-.3.4-.4,1.1-.4,2.2Z"/>
          <path class="cls-1" d="M54.6,194.9c0-.8,0-1.4.2-1.8.2-.5.4-.8.7-1.1.3-.3.7-.4,1.2-.4s.6,0,.9.2c.3.1.5.3.6.6.2.3.3.6.4,1,0,.4.1.9.1,1.5s0,1.4-.2,1.8c-.2.5-.4.8-.7,1.1-.3.3-.7.4-1.2.4s-1.1-.2-1.5-.7c-.4-.5-.6-1.4-.6-2.6ZM55.4,194.9c0,1.1.1,1.8.4,2.1.2.3.6.5.9.5s.7-.2.9-.5c.2-.4.4-1.1.4-2.1s-.1-1.8-.4-2.1c-.2-.3-.6-.5-.9-.5s-.7.2-.9.5c-.3.4-.4,1.1-.4,2.2Z"/>
          <path class="cls-1" d="M59.6,194.9c0-.8,0-1.4.2-1.8.2-.5.4-.8.7-1.1.3-.3.7-.4,1.2-.4s.6,0,.9.2c.3.1.5.3.6.6.2.3.3.6.4,1,0,.4.1.9.1,1.5s0,1.4-.2,1.8c-.2.5-.4.8-.7,1.1-.3.3-.7.4-1.2.4s-1.1-.2-1.5-.7c-.4-.5-.6-1.4-.6-2.6ZM60.4,194.9c0,1.1.1,1.8.4,2.1.2.3.6.5.9.5s.7-.2.9-.5c.2-.4.4-1.1.4-2.1s-.1-1.8-.4-2.1c-.2-.3-.6-.5-.9-.5s-.7.2-.9.5c-.3.4-.4,1.1-.4,2.2Z"/>
          <path class="cls-1" d="M64.6,194.9c0-.8,0-1.4.2-1.8.2-.5.4-.8.7-1.1.3-.3.7-.4,1.2-.4s.6,0,.9.2c.3.1.5.3.6.6.2.3.3.6.4,1,0,.4.1.9.1,1.5s0,1.4-.2,1.8c-.2.5-.4.8-.7,1.1-.3.3-.7.4-1.2.4s-1.1-.2-1.5-.7c-.4-.5-.6-1.4-.6-2.6ZM65.4,194.9c0,1.1.1,1.8.4,2.1.2.3.6.5.9.5s.7-.2.9-.5c.2-.4.4-1.1.4-2.1s-.1-1.8-.4-2.1c-.2-.3-.6-.5-.9-.5s-.7.2-.9.5c-.3.4-.4,1.1-.4,2.2Z"/>
          <path class="cls-1" d="M69.6,194.9c0-.8,0-1.4.2-1.8.2-.5.4-.8.7-1.1.3-.3.7-.4,1.2-.4s.6,0,.9.2c.3.1.5.3.6.6.2.3.3.6.4,1,0,.4.1.9.1,1.5s0,1.4-.2,1.8c-.2.5-.4.8-.7,1.1-.3.3-.7.4-1.2.4s-1.1-.2-1.5-.7c-.4-.5-.6-1.4-.6-2.6ZM70.4,194.9c0,1.1.1,1.8.4,2.1.2.3.6.5.9.5s.7-.2.9-.5c.2-.4.4-1.1.4-2.1s-.1-1.8-.4-2.1c-.2-.3-.6-.5-.9-.5s-.7.2-.9.5c-.3.4-.4,1.1-.4,2.2Z"/>
          <path class="cls-1" d="M74.6,194.9c0-.8,0-1.4.2-1.8.2-.5.4-.8.7-1.1.3-.3.7-.4,1.2-.4s.6,0,.9.2c.3.1.5.3.6.6.2.3.3.6.4,1,0,.4.1.9.1,1.5s0,1.4-.2,1.8c-.2.5-.4.8-.7,1.1-.3.3-.7.4-1.2.4s-1.1-.2-1.5-.7c-.4-.5-.6-1.4-.6-2.6ZM75.4,194.9c0,1.1.1,1.8.4,2.1.2.3.6.5.9.5s.7-.2.9-.5c.2-.4.4-1.1.4-2.1s-.1-1.8-.4-2.1c-.2-.3-.6-.5-.9-.5s-.7.2-.9.5c-.3.4-.4,1.1-.4,2.2Z"/>
          <path class="cls-1" d="M79.6,194.9c0-.8,0-1.4.2-1.8.2-.5.4-.8.7-1.1.3-.3.7-.4,1.2-.4s.6,0,.9.2c.3.1.5.3.6.6.2.3.3.6.4,1,0,.4.1.9.1,1.5s0,1.4-.2,1.8c-.2.5-.4.8-.7,1.1-.3.3-.7.4-1.2.4s-1.1-.2-1.5-.7c-.4-.5-.6-1.4-.6-2.6ZM80.4,194.9c0,1.1.1,1.8.4,2.1.2.3.6.5.9.5s.7-.2.9-.5c.2-.4.4-1.1.4-2.1s-.1-1.8-.4-2.1c-.2-.3-.6-.5-.9-.5s-.7.2-.9.5c-.3.4-.4,1.1-.4,2.2Z"/>
          <path class="cls-1" d="M84.6,194.9c0-.8,0-1.4.2-1.8.2-.5.4-.8.7-1.1.3-.3.7-.4,1.2-.4s.6,0,.9.2c.3.1.5.3.6.6.2.3.3.6.4,1,0,.4.1.9.1,1.5s0,1.4-.2,1.8c-.2.5-.4.8-.7,1.1-.3.3-.7.4-1.2.4s-1.1-.2-1.5-.7c-.4-.5-.6-1.4-.6-2.6ZM85.4,194.9c0,1.1.1,1.8.4,2.1.2.3.6.5.9.5s.7-.2.9-.5c.2-.4.4-1.1.4-2.1s-.1-1.8-.4-2.1c-.2-.3-.6-.5-.9-.5s-.7.2-.9.5c-.3.4-.4,1.1-.4,2.2Z"/>
          <path class="cls-1" d="M89.6,194.9c0-.8,0-1.4.2-1.8.2-.5.4-.8.7-1.1.3-.3.7-.4,1.2-.4s.6,0,.9.2c.3.1.5.3.6.6.2.3.3.6.4,1,0,.4.1.9.1,1.5s0,1.4-.2,1.8c-.2.5-.4.8-.7,1.1-.3.3-.7.4-1.2.4s-1.1-.2-1.5-.7c-.4-.5-.6-1.4-.6-2.6ZM90.4,194.9c0,1.1.1,1.8.4,2.1.2.3.6.5.9.5s.7-.2.9-.5c.2-.4.4-1.1.4-2.1s-.1-1.8-.4-2.1c-.2-.3-.6-.5-.9-.5s-.7.2-.9.5c-.3.4-.4,1.1-.4,2.2Z"/>
          <path class="cls-1" d="M94.6,194.9c0-.8,0-1.4.2-1.8.2-.5.4-.8.7-1.1.3-.3.7-.4,1.2-.4s.6,0,.9.2c.3.1.5.3.6.6.2.3.3.6.4,1,0,.4.1.9.1,1.5s0,1.4-.2,1.8c-.2.5-.4.8-.7,1.1-.3.3-.7.4-1.2.4s-1.1-.2-1.5-.7c-.4-.5-.6-1.4-.6-2.6ZM95.4,194.9c0,1.1.1,1.8.4,2.1.2.3.6.5.9.5s.7-.2.9-.5c.2-.4.4-1.1.4-2.1s-.1-1.8-.4-2.1c-.2-.3-.6-.5-.9-.5s-.7.2-.9.5c-.3.4-.4,1.1-.4,2.2Z"/>
          <path class="cls-1" d="M99.6,194.9c0-.8,0-1.4.2-1.8.2-.5.4-.8.7-1.1.3-.3.7-.4,1.2-.4s.6,0,.9.2c.3.1.5.3.6.6.2.3.3.6.4,1,0,.4.1.9.1,1.5s0,1.4-.2,1.8c-.2.5-.4.8-.7,1.1-.3.3-.7.4-1.2.4s-1.1-.2-1.5-.7c-.4-.5-.6-1.4-.6-2.6ZM100.5,194.9c0,1.1.1,1.8.4,2.1.2.3.6.5.9.5s.7-.2.9-.5c.2-.4.4-1.1.4-2.1s-.1-1.8-.4-2.1c-.2-.3-.6-.5-.9-.5s-.7.2-.9.5c-.3.4-.4,1.1-.4,2.2Z"/>
          <path class="cls-1" d="M104.6,194.9c0-.8,0-1.4.2-1.8.2-.5.4-.8.7-1.1.3-.3.7-.4,1.2-.4s.6,0,.9.2c.3.1.5.3.6.6.2.3.3.6.4,1,0,.4.1.9.1,1.5s0,1.4-.2,1.8c-.2.5-.4.8-.7,1.1-.3.3-.7.4-1.2.4s-1.1-.2-1.5-.7c-.4-.5-.6-1.4-.6-2.6ZM105.5,194.9c0,1.1.1,1.8.4,2.1.2.3.6.5.9.5s.7-.2.9-.5c.2-.4.4-1.1.4-2.1s-.1-1.8-.4-2.1c-.2-.3-.6-.5-.9-.5s-.7.2-.9.5c-.3.4-.4,1.1-.4,2.2Z"/>
          <path class="cls-1" d="M109.7,194.9c0-.8,0-1.4.2-1.8.2-.5.4-.8.7-1.1.3-.3.7-.4,1.2-.4s.6,0,.9.2c.3.1.5.3.6.6.2.3.3.6.4,1,0,.4.1.9.1,1.5s0,1.4-.2,1.8c-.2.5-.4.8-.7,1.1-.3.3-.7.4-1.2.4s-1.1-.2-1.5-.7c-.4-.5-.6-1.4-.6-2.6ZM110.5,194.9c0,1.1.1,1.8.4,2.1.2.3.6.5.9.5s.7-.2.9-.5c.2-.4.4-1.1.4-2.1s-.1-1.8-.4-2.1c-.2-.3-.6-.5-.9-.5s-.7.2-.9.5c-.3.4-.4,1.1-.4,2.2Z"/>
          <path class="cls-1" d="M114.7,194.9c0-.8,0-1.4.2-1.8.2-.5.4-.8.7-1.1.3-.3.7-.4,1.2-.4s.6,0,.9.2c.3.1.5.3.6.6.2.3.3.6.4,1,0,.4.1.9.1,1.5s0,1.4-.2,1.8c-.2.5-.4.8-.7,1.1-.3.3-.7.4-1.2.4s-1.1-.2-1.5-.7c-.4-.5-.6-1.4-.6-2.6ZM115.5,194.9c0,1.1.1,1.8.4,2.1.2.3.6.5.9.5s.7-.2.9-.5c.2-.4.4-1.1.4-2.1s-.1-1.8-.4-2.1c-.2-.3-.6-.5-.9-.5s-.7.2-.9.5c-.3.4-.4,1.1-.4,2.2Z"/>
          <path class="cls-1" d="M119.7,194.9c0-.8,0-1.4.2-1.8.2-.5.4-.8.7-1.1.3-.3.7-.4,1.2-.4s.6,0,.9.2c.3.1.5.3.6.6.2.3.3.6.4,1,0,.4.1.9.1,1.5s0,1.4-.2,1.8c-.2.5-.4.8-.7,1.1-.3.3-.7.4-1.2.4s-1.1-.2-1.5-.7c-.4-.5-.6-1.4-.6-2.6ZM120.5,194.9c0,1.1.1,1.8.4,2.1.2.3.6.5.9.5s.7-.2.9-.5c.2-.4.4-1.1.4-2.1s-.1-1.8-.4-2.1c-.2-.3-.6-.5-.9-.5s-.7.2-.9.5c-.3.4-.4,1.1-.4,2.2Z"/>
          <path class="cls-1" d="M127.6,198h-.8v-5c-.2.2-.4.4-.8.5-.3.2-.6.3-.8.4v-.8c.4-.2.8-.5,1.2-.8.3-.3.6-.6.7-.9h.5s0,6.5,0,6.5Z"/>
          <path class="cls-1" d="M132.7,198h-.8v-5c-.2.2-.4.4-.8.5-.3.2-.6.3-.8.4v-.8c.4-.2.8-.5,1.2-.8.3-.3.6-.6.7-.9h.5s0,6.5,0,6.5Z"/>
          <path class="cls-1" d="M137.7,198h-.8v-5c-.2.2-.4.4-.8.5-.3.2-.6.3-.8.4v-.8c.4-.2.8-.5,1.2-.8.3-.3.6-.6.7-.9h.5v6.5Z"/>
          <path class="cls-1" d="M10,208.8v-.9h.9v.9h-.9Z"/>
          <path class="cls-1" d="M12.5,208.8v-.9h.9v.9s-.9,0-.9,0Z"/>
          <path class="cls-1" d="M15,208.8v-.9h.9v.9h-.9Z"/>
          <path class="cls-1" d="M9.5,216.5c0-.8,0-1.4.2-1.8.2-.5.4-.8.7-1.1.3-.3.7-.4,1.2-.4s.6,0,.9.2c.3.1.5.3.6.6.2.3.3.6.4,1,0,.4.1.9.1,1.5s0,1.4-.2,1.8c-.2.5-.4.8-.7,1.1-.3.3-.7.4-1.2.4s-1.1-.2-1.5-.7c-.4-.5-.6-1.4-.6-2.6ZM10.4,216.5c0,1.1.1,1.8.4,2.1.2.3.6.5.9.5s.7-.2.9-.5c.2-.4.4-1.1.4-2.1s-.1-1.8-.4-2.1c-.2-.3-.6-.5-.9-.5s-.7.2-.9.5c-.3.4-.4,1.1-.4,2.2Z"/>
          <path class="cls-1" d="M17.5,219.6h-.8v-5c-.2.2-.4.4-.8.5-.3.2-.6.3-.8.4v-.8c.4-.2.8-.5,1.2-.8.3-.3.6-.6.7-.9h.5v6.5Z"/>
          <path class="cls-1" d="M22.5,219.6h-.8v-5c-.2.2-.4.4-.8.5-.3.2-.6.3-.8.4v-.8c.4-.2.8-.5,1.2-.8.3-.3.6-.6.7-.9h.5s0,6.5,0,6.5Z"/>
          <path class="cls-1" d="M27.5,219.6h-.8v-5c-.2.2-.4.4-.8.5-.3.2-.6.3-.8.4v-.8c.4-.2.8-.5,1.2-.8.3-.3.6-.6.7-.9h.5v6.5Z"/>
          <path class="cls-1" d="M32.5,219.6h-.8v-5c-.2.2-.4.4-.8.5-.3.2-.6.3-.8.4v-.8c.4-.2.8-.5,1.2-.8.3-.3.6-.6.7-.9h.5v6.5Z"/>
          <path class="cls-1" d="M37.6,219.6h-.8v-5c-.2.2-.4.4-.8.5-.3.2-.6.3-.8.4v-.8c.4-.2.8-.5,1.2-.8.3-.3.6-.6.7-.9h.5v6.5Z"/>
          <path class="cls-1" d="M42.6,219.6h-.8v-5c-.2.2-.4.4-.8.5-.3.2-.6.3-.8.4v-.8c.4-.2.8-.5,1.2-.8.3-.3.6-.6.7-.9h.5v6.5Z"/>
          <path class="cls-1" d="M47.6,219.6h-.8v-5c-.2.2-.4.4-.8.5-.3.2-.6.3-.8.4v-.8c.4-.2.8-.5,1.2-.8.3-.3.6-.6.7-.9h.5v6.5Z"/>
          <path class="cls-1" d="M52.6,219.6h-.8v-5c-.2.2-.4.4-.8.5-.3.2-.6.3-.8.4v-.8c.4-.2.8-.5,1.2-.8.3-.3.6-.6.7-.9h.5v6.5Z"/>
          <path class="cls-1" d="M57.6,219.6h-.8v-5c-.2.2-.4.4-.8.5-.3.2-.6.3-.8.4v-.8c.4-.2.8-.5,1.2-.8.3-.3.6-.6.7-.9h.5v6.5Z"/>
          <path class="cls-1" d="M62.6,219.6h-.8v-5c-.2.2-.4.4-.8.5-.3.2-.6.3-.8.4v-.8c.4-.2.8-.5,1.2-.8.3-.3.6-.6.7-.9h.5v6.5Z"/>
          <path class="cls-1" d="M67.6,219.6h-.8v-5c-.2.2-.4.4-.8.5-.3.2-.6.3-.8.4v-.8c.4-.2.8-.5,1.2-.8.3-.3.6-.6.7-.9h.5v6.5Z"/>
          <path class="cls-1" d="M72.6,219.6h-.8v-5c-.2.2-.4.4-.8.5-.3.2-.6.3-.8.4v-.8c.4-.2.8-.5,1.2-.8.3-.3.6-.6.7-.9h.5s0,6.5,0,6.5Z"/>
          <path class="cls-1" d="M77.6,219.6h-.8v-5c-.2.2-.4.4-.8.5-.3.2-.6.3-.8.4v-.8c.4-.2.8-.5,1.2-.8.3-.3.6-.6.7-.9h.5s0,6.5,0,6.5Z"/>
          <path class="cls-1" d="M82.6,219.6h-.8v-5c-.2.2-.4.4-.8.5-.3.2-.6.3-.8.4v-.8c.4-.2.8-.5,1.2-.8.3-.3.6-.6.7-.9h.5s0,6.5,0,6.5Z"/>
          <path class="cls-1" d="M87.6,219.6h-.8v-5c-.2.2-.4.4-.8.5-.3.2-.6.3-.8.4v-.8c.4-.2.8-.5,1.2-.8.3-.3.6-.6.7-.9h.5s0,6.5,0,6.5Z"/>
          <path class="cls-1" d="M92.6,219.6h-.8v-5c-.2.2-.4.4-.8.5-.3.2-.6.3-.8.4v-.8c.4-.2.8-.5,1.2-.8.3-.3.6-.6.7-.9h.5s0,6.5,0,6.5Z"/>
          <path class="cls-1" d="M97.6,219.6h-.8v-5c-.2.2-.4.4-.8.5-.3.2-.6.3-.8.4v-.8c.4-.2.8-.5,1.2-.8.3-.3.6-.6.7-.9h.5s0,6.5,0,6.5Z"/>
          <path class="cls-1" d="M102.6,219.6h-.8v-5c-.2.2-.4.4-.8.5-.3.2-.6.3-.8.4v-.8c.4-.2.8-.5,1.2-.8.3-.3.6-.6.7-.9h.5s0,6.5,0,6.5Z"/>
          <path class="cls-1" d="M107.6,219.6h-.8v-5c-.2.2-.4.4-.8.5-.3.2-.6.3-.8.4v-.8c.4-.2.8-.5,1.2-.8.3-.3.6-.6.7-.9h.5s0,6.5,0,6.5Z"/>
          <path class="cls-1" d="M112.6,219.6h-.8v-5c-.2.2-.4.4-.8.5-.3.2-.6.3-.8.4v-.8c.4-.2.8-.5,1.2-.8.3-.3.6-.6.7-.9h.5s0,6.5,0,6.5Z"/>
          <path class="cls-1" d="M117.6,219.6h-.8v-5c-.2.2-.4.4-.8.5-.3.2-.6.3-.8.4v-.8c.4-.2.8-.5,1.2-.8.3-.3.6-.6.7-.9h.5s0,6.5,0,6.5Z"/>
          <path class="cls-1" d="M122.6,219.6h-.8v-5c-.2.2-.4.4-.8.5-.3.2-.6.3-.8.4v-.8c.4-.2.8-.5,1.2-.8.3-.3.6-.6.7-.9h.5s0,6.5,0,6.5Z"/>
          <path class="cls-1" d="M127.6,219.6h-.8v-5c-.2.2-.4.4-.8.5-.3.2-.6.3-.8.4v-.8c.4-.2.8-.5,1.2-.8.3-.3.6-.6.7-.9h.5s0,6.5,0,6.5Z"/>
          <path class="cls-1" d="M132.7,219.6h-.8v-5c-.2.2-.4.4-.8.5-.3.2-.6.3-.8.4v-.8c.4-.2.8-.5,1.2-.8.3-.3.6-.6.7-.9h.5s0,6.5,0,6.5Z"/>
          <path class="cls-1" d="M137.7,219.6h-.8v-5c-.2.2-.4.4-.8.5-.3.2-.6.3-.8.4v-.8c.4-.2.8-.5,1.2-.8.3-.3.6-.6.7-.9h.5v6.5Z"/>
          <path class="cls-1" d="M12.5,230.4h-.8v-5c-.2.2-.4.4-.8.5-.3.2-.6.3-.8.4v-.8c.4-.2.8-.5,1.2-.8.3-.3.6-.6.7-.9h.5v6.5Z"/>
          <path class="cls-1" d="M17.5,230.4h-.8v-5c-.2.2-.4.4-.8.5-.3.2-.6.3-.8.4v-.8c.4-.2.8-.5,1.2-.8.3-.3.6-.6.7-.9h.5v6.5Z"/>
          <path class="cls-1" d="M22.5,230.4h-.8v-5c-.2.2-.4.4-.8.5-.3.2-.6.3-.8.4v-.8c.4-.2.8-.5,1.2-.8.3-.3.6-.6.7-.9h.5s0,6.5,0,6.5Z"/>
          <path class="cls-1" d="M27.5,230.4h-.8v-5c-.2.2-.4.4-.8.5-.3.2-.6.3-.8.4v-.8c.4-.2.8-.5,1.2-.8.3-.3.6-.6.7-.9h.5v6.5Z"/>
          <path class="cls-1" d="M32.5,230.4h-.8v-5c-.2.2-.4.4-.8.5-.3.2-.6.3-.8.4v-.8c.4-.2.8-.5,1.2-.8.3-.3.6-.6.7-.9h.5v6.5Z"/>
          <path class="cls-1" d="M37.6,230.4h-.8v-5c-.2.2-.4.4-.8.5-.3.2-.6.3-.8.4v-.8c.4-.2.8-.5,1.2-.8.3-.3.6-.6.7-.9h.5v6.5Z"/>
          <path class="cls-1" d="M42.6,230.4h-.8v-5c-.2.2-.4.4-.8.5-.3.2-.6.3-.8.4v-.8c.4-.2.8-.5,1.2-.8.3-.3.6-.6.7-.9h.5v6.5Z"/>
          <path class="cls-1" d="M47.6,230.4h-.8v-5c-.2.2-.4.4-.8.5-.3.2-.6.3-.8.4v-.8c.4-.2.8-.5,1.2-.8.3-.3.6-.6.7-.9h.5v6.5Z"/>
          <path class="cls-1" d="M52.6,230.4h-.8v-5c-.2.2-.4.4-.8.5-.3.2-.6.3-.8.4v-.8c.4-.2.8-.5,1.2-.8.3-.3.6-.6.7-.9h.5v6.5Z"/>
          <path class="cls-1" d="M57.6,230.4h-.8v-5c-.2.2-.4.4-.8.5-.3.2-.6.3-.8.4v-.8c.4-.2.8-.5,1.2-.8.3-.3.6-.6.7-.9h.5v6.5Z"/>
          <path class="cls-1" d="M62.6,230.4h-.8v-5c-.2.2-.4.4-.8.5-.3.2-.6.3-.8.4v-.8c.4-.2.8-.5,1.2-.8.3-.3.6-.6.7-.9h.5v6.5Z"/>
          <path class="cls-1" d="M67.6,230.4h-.8v-5c-.2.2-.4.4-.8.5-.3.2-.6.3-.8.4v-.8c.4-.2.8-.5,1.2-.8.3-.3.6-.6.7-.9h.5v6.5Z"/>
          <path class="cls-1" d="M72.6,230.4h-.8v-5c-.2.2-.4.4-.8.5-.3.2-.6.3-.8.4v-.8c.4-.2.8-.5,1.2-.8.3-.3.6-.6.7-.9h.5s0,6.5,0,6.5Z"/>
          <path class="cls-1" d="M77.6,230.4h-.8v-5c-.2.2-.4.4-.8.5-.3.2-.6.3-.8.4v-.8c.4-.2.8-.5,1.2-.8.3-.3.6-.6.7-.9h.5s0,6.5,0,6.5Z"/>
          <path class="cls-1" d="M82.6,230.4h-.8v-5c-.2.2-.4.4-.8.5-.3.2-.6.3-.8.4v-.8c.4-.2.8-.5,1.2-.8.3-.3.6-.6.7-.9h.5s0,6.5,0,6.5Z"/>
          <path class="cls-1" d="M87.6,230.4h-.8v-5c-.2.2-.4.4-.8.5-.3.2-.6.3-.8.4v-.8c.4-.2.8-.5,1.2-.8.3-.3.6-.6.7-.9h.5s0,6.5,0,6.5Z"/>
          <path class="cls-1" d="M92.6,230.4h-.8v-5c-.2.2-.4.4-.8.5-.3.2-.6.3-.8.4v-.8c.4-.2.8-.5,1.2-.8.3-.3.6-.6.7-.9h.5s0,6.5,0,6.5Z"/>
          <path class="cls-1" d="M97.6,230.4h-.8v-5c-.2.2-.4.4-.8.5-.3.2-.6.3-.8.4v-.8c.4-.2.8-.5,1.2-.8.3-.3.6-.6.7-.9h.5s0,6.5,0,6.5Z"/>
          <path class="cls-1" d="M102.6,230.4h-.8v-5c-.2.2-.4.4-.8.5-.3.2-.6.3-.8.4v-.8c.4-.2.8-.5,1.2-.8.3-.3.6-.6.7-.9h.5s0,6.5,0,6.5Z"/>
          <path class="cls-1" d="M107.6,230.4h-.8v-5c-.2.2-.4.4-.8.5-.3.2-.6.3-.8.4v-.8c.4-.2.8-.5,1.2-.8.3-.3.6-.6.7-.9h.5s0,6.5,0,6.5Z"/>
          <path class="cls-1" d="M112.6,230.4h-.8v-5c-.2.2-.4.4-.8.5-.3.2-.6.3-.8.4v-.8c.4-.2.8-.5,1.2-.8.3-.3.6-.6.7-.9h.5s0,6.5,0,6.5Z"/>
          <path class="cls-1" d="M117.6,230.4h-.8v-5c-.2.2-.4.4-.8.5-.3.2-.6.3-.8.4v-.8c.4-.2.8-.5,1.2-.8.3-.3.6-.6.7-.9h.5s0,6.5,0,6.5Z"/>
          <path class="cls-1" d="M122.6,230.4h-.8v-5c-.2.2-.4.4-.8.5-.3.2-.6.3-.8.4v-.8c.4-.2.8-.5,1.2-.8.3-.3.6-.6.7-.9h.5s0,6.5,0,6.5Z"/>
          <path class="cls-1" d="M127.6,230.4h-.8v-5c-.2.2-.4.4-.8.5-.3.2-.6.3-.8.4v-.8c.4-.2.8-.5,1.2-.8.3-.3.6-.6.7-.9h.5s0,6.5,0,6.5Z"/>
          <path class="cls-1" d="M132.7,230.4h-.8v-5c-.2.2-.4.4-.8.5-.3.2-.6.3-.8.4v-.8c.4-.2.8-.5,1.2-.8.3-.3.6-.6.7-.9h.5s0,6.5,0,6.5Z"/>
          <path class="cls-1" d="M137.7,230.4h-.8v-5c-.2.2-.4.4-.8.5-.3.2-.6.3-.8.4v-.8c.4-.2.8-.5,1.2-.8.3-.3.6-.6.7-.9h.5v6.5Z"/>
          <path class="cls-1" d="M146.6,226.7h-4.3v-.7h4.3v.7ZM146.6,228.6h-4.3v-.7h4.3v.7Z"/>
          <path class="cls-1" d="M149.8,229h.8c0,.2.2.4.4.6.2.2.5.2.8.2s.6,0,.8-.2c.2-.1.3-.3.3-.5s0-.3-.2-.4c-.1,0-.4-.2-.8-.3-.6-.1-1-.3-1.2-.4-.2-.1-.4-.3-.5-.4-.1-.2-.2-.4-.2-.6s0-.4.1-.6c0-.2.2-.3.4-.4.1,0,.3-.2.5-.2.2,0,.4,0,.7,0,.4,0,.7,0,1,.2.3.1.5.2.6.4.1.2.2.4.3.7h-.8c0-.1-.1-.3-.3-.5-.2-.1-.4-.2-.7-.2s-.6,0-.8.2-.2.3-.2.4,0,.2,0,.3c0,0,.2.2.3.2,0,0,.3,0,.7.2.6.1,1,.3,1.2.4.2,0,.4.2.5.4s.2.4.2.7,0,.5-.2.7c-.2.2-.4.4-.7.5-.3.1-.6.2-1,.2-.6,0-1.1-.1-1.4-.4-.3-.3-.5-.6-.6-1.1Z"/>
          <path class="cls-1" d="M154.6,230.4v-6.4h.8v6.4h-.8Z"/>
          <path class="cls-1" d="M156.4,228.1c0-.9.2-1.5.7-1.9.4-.3.9-.5,1.5-.5s1.2.2,1.6.6c.4.4.6,1,.6,1.7s0,1.1-.3,1.4c-.2.3-.4.6-.8.8-.3.2-.7.3-1.1.3-.7,0-1.2-.2-1.6-.6-.4-.4-.6-1-.6-1.8ZM157.2,228.1c0,.6.1,1,.4,1.3.3.3.6.4,1,.4s.7-.1,1-.4.4-.8.4-1.4-.1-1-.4-1.3c-.3-.3-.6-.4-1-.4s-.7.1-1,.4-.4.7-.4,1.3Z"/>
          <path class="cls-1" d="M162.5,230.4l-1.4-4.7h.8l.7,2.7.3,1s0-.4.2-1l.7-2.7h.8l.7,2.7.2.9.3-.9.8-2.7h.8l-1.5,4.7h-.8l-.7-2.8-.2-.8-.9,3.6h-.8Z"/>
        </g>
        <g class="cls-12">
          <text class="cls-15" transform="translate(75.9 290.2)"><tspan x="0" y="0">default value 1</tspan></text>
          <text class="cls-11" transform="translate(143 290.2)"><tspan x="0" y="0">0</tspan></text>
          <text class="cls-15" transform="translate(149.5 290.2)"><tspan x="0" y="0">MHz</tspan></text>
        </g>
        <g class="cls-12">
          <text class="cls-2" transform="translate(453.8 29.6)"><tspan x="0" y="0">0 = ÷1 (undivided)</tspan></text>
          <text class="cls-2" transform="translate(453.8 42)"><tspan x="0" y="0">1 = HALT</tspan></text>
          <text class="cls-2" transform="translate(453.8 54.4)"><tspan x="0" y="0">2..7 = ÷2 .. ÷7</tspan></text>
        </g>
        <g class="cls-12">
          <text class="cls-2" transform="translate(453.8 250.1)"><tspan x="0" y="0">0 = ÷1 (undivided)</tspan></text>
          <text class="cls-2" transform="translate(453.8 262.4)"><tspan x="0" y="0">1 = HALT</tspan></text>
          <text class="cls-2" transform="translate(453.8 274.8)"><tspan x="0" y="0">2..7 = ÷2 .. ÷7</tspan></text>
        </g>
        <g class="cls-12">
          <text class="cls-2" transform="translate(246.3 357.4)"><tspan x="0" y="0">value 0 =&gt; ???</tspan></text>
        </g>
      </g>
    </g>
  </g>
</svg>